#N canvas 406 111 672 419 10;
#X floatatom 20 70 6 0 0 0 - - -;
#X floatatom 77 69 2 0 0 0 - - -;
#X obj 20 130 pack 0 0 0;
#X obj 20 200 unpack 0 0;
#X floatatom 20 230 5 0 0 0 - - -;
#X floatatom 60 230 5 0 0 0 - - -;
#X obj 20 40 inlet;
#X obj 77 40 inlet;
#X obj 300 380 outlet~;
#X text 20 20 Note;
#X text 77 20 Velocity;
#X obj 20 100 poly 8 1, f 10;
#X obj 20 160 route 1 2 3 4 5 6 7 8, f 105;
#X obj 300 350 /~ 8;
#X obj 20 260 tubos;
#X obj 100 200 unpack 0 0;
#X floatatom 100 230 5 0 0 0 - - -;
#X floatatom 140 230 5 0 0 0 - - -;
#X obj 100 260 tubos;
#X obj 180 200 unpack 0 0;
#X floatatom 180 230 5 0 0 0 - - -;
#X floatatom 220 230 5 0 0 0 - - -;
#X obj 180 260 tubos;
#X obj 260 200 unpack 0 0;
#X floatatom 260 230 5 0 0 0 - - -;
#X floatatom 300 230 5 0 0 0 - - -;
#X obj 260 260 tubos;
#X obj 340 200 unpack 0 0;
#X floatatom 340 230 5 0 0 0 - - -;
#X floatatom 380 230 5 0 0 0 - - -;
#X obj 340 260 tubos;
#X obj 420 200 unpack 0 0;
#X floatatom 420 230 5 0 0 0 - - -;
#X floatatom 460 230 5 0 0 0 - - -;
#X obj 420 260 tubos;
#X obj 500 200 unpack 0 0;
#X floatatom 500 230 5 0 0 0 - - -;
#X floatatom 540 230 5 0 0 0 - - -;
#X obj 500 260 tubos;
#X obj 580 200 unpack 0 0;
#X floatatom 580 230 5 0 0 0 - - -;
#X floatatom 620 230 5 0 0 0 - - -;
#X obj 580 260 tubos;
#X connect 0 0 11 0;
#X connect 1 0 11 1;
#X connect 2 0 12 0;
#X connect 3 0 4 0;
#X connect 3 1 5 0;
#X connect 4 0 14 0;
#X connect 5 0 14 1;
#X connect 6 0 0 0;
#X connect 7 0 1 0;
#X connect 11 0 2 0;
#X connect 11 1 2 1;
#X connect 11 2 2 2;
#X connect 12 0 3 0;
#X connect 12 1 15 0;
#X connect 12 2 19 0;
#X connect 12 3 23 0;
#X connect 12 4 27 0;
#X connect 12 5 31 0;
#X connect 12 6 35 0;
#X connect 12 7 39 0;
#X connect 13 0 8 0;
#X connect 14 0 13 0;
#X connect 15 0 16 0;
#X connect 15 1 17 0;
#X connect 16 0 18 0;
#X connect 17 0 18 1;
#X connect 18 0 13 0;
#X connect 19 0 20 0;
#X connect 19 1 21 0;
#X connect 20 0 22 0;
#X connect 21 0 22 1;
#X connect 22 0 13 0;
#X connect 23 0 24 0;
#X connect 23 1 25 0;
#X connect 24 0 26 0;
#X connect 25 0 26 1;
#X connect 26 0 13 0;
#X connect 27 0 28 0;
#X connect 27 1 29 0;
#X connect 28 0 30 0;
#X connect 29 0 30 1;
#X connect 30 0 13 0;
#X connect 31 0 32 0;
#X connect 31 1 33 0;
#X connect 32 0 34 0;
#X connect 33 0 34 1;
#X connect 34 0 13 0;
#X connect 35 0 36 0;
#X connect 35 1 37 0;
#X connect 36 0 38 0;
#X connect 37 0 38 1;
#X connect 38 0 13 0;
#X connect 39 0 40 0;
#X connect 39 1 41 0;
#X connect 40 0 42 0;
#X connect 41 0 42 1;
#X connect 42 0 13 0;
#X coords 0 0 1 1 400 200 0;
