#N canvas 735 1176 170 358 12;
#X obj 30 15 inlet;
#X obj 30 319 outlet;
#X floatatom 30 49 5 0 0 0 - - - 0;
#X obj 30 80 / 100;
#X obj 30 103 + 0.4;
#X obj 30 210 spigot;
#X floatatom 30 289 5 0 0 0 - - - 0;
#X obj 86 158 > 0;
#X obj 86 192 tgl 15 0 empty empty empty 17 7 0 10 #fcfcfc #000000
#000000 0 1;
#X obj 30 128 t b f;
#X floatatom 30 179 5 0 0 0 - - - 0;
#X obj 86 222 == 0;
#X msg 86 250 0;
#X connect 0 0 2 0;
#X connect 2 0 3 0;
#X connect 3 0 4 0;
#X connect 4 0 9 0;
#X connect 5 0 6 0;
#X connect 6 0 1 0;
#X connect 7 0 8 0;
#X connect 8 0 5 1;
#X connect 8 0 11 0;
#X connect 9 0 10 0;
#X connect 9 1 7 0;
#X connect 9 1 10 0;
#X connect 10 0 5 0;
#X connect 11 0 12 0;
#X connect 12 0 6 0;
