#N canvas 688 59 1001 602 12;
#X floatatom 49 -340 5 0 0 0 - - -;
#X floatatom 49 -283 5 0 0 0 - - -;
#X obj 10 -250 pow;
#X floatatom 10 -220 10 0 0 0 - - -;
#X msg 10 -340 10;
#X obj 10 -370 t b f, f 6;
#X obj 10 -430 inlet;
#X obj 82 -189 +;
#X floatatom 139 -340 5 0 0 0 - - -;
#X obj 139 -311 / 10;
#X floatatom 139 -283 5 0 0 0 - - -;
#X obj 100 -250 pow;
#X floatatom 100 -220 10 0 0 0 - - -;
#X msg 100 -340 10;
#X obj 100 -370 t b f, f 6;
#X obj 100 -430 inlet;
#X obj 172 -189 +;
#X floatatom 229 -340 5 0 0 0 - - -;
#X obj 229 -311 / 10;
#X floatatom 229 -283 5 0 0 0 - - -;
#X obj 190 -250 pow;
#X floatatom 190 -220 10 0 0 0 - - -;
#X msg 190 -340 10;
#X obj 190 -370 t b f, f 6;
#X obj 190 -430 inlet;
#X obj 262 -190 +;
#X floatatom 319 -340 5 0 0 0 - - -;
#X obj 319 -311 / 10;
#X floatatom 319 -283 5 0 0 0 - - -;
#X obj 280 -250 pow;
#X floatatom 280 -220 10 0 0 0 - - -;
#X msg 280 -340 10;
#X obj 280 -370 t b f, f 6;
#X obj 280 -430 inlet;
#X obj 110 -400 s pechon;
#X obj 200 -400 s pechon;
#X obj 290 -400 s pechon;
#X floatatom 409 -340 5 0 0 0 - - -;
#X obj 409 -311 / 10;
#X floatatom 409 -283 5 0 0 0 - - -;
#X obj 370 -250 pow;
#X floatatom 370 -220 10 0 0 0 - - -;
#X msg 370 -340 10;
#X obj 370 -370 t b f, f 6;
#X obj 370 -430 inlet;
#X obj 460 -250 pow;
#X floatatom 460 -220 10 0 0 0 - - -;
#X msg 460 -340 10;
#X obj 460 -370 t b f, f 6;
#X obj 460 -430 inlet;
#X obj 380 -400 s pechon;
#X obj 470 -400 s pechon;
#X obj 352 -189 +;
#X obj 442 -188 +;
#X obj 550 -250 pow;
#X floatatom 550 -220 10 0 0 0 - - -;
#X msg 550 -340 10;
#X obj 550 -370 t b f, f 6;
#X obj 550 -430 inlet;
#X obj 560 -400 s pechon;
#X obj 813 -158 log 10;
#X obj 813 -128 * 10;
#X floatatom 813 -98 5 0 0 0 - - -;
#X obj 813 94 outlet;
#X obj 532 -188 +;
#X floatatom 499 -340 5 0 0 0 - - -;
#X obj 499 -311 / 10;
#X floatatom 499 -283 5 0 0 0 - - -;
#X floatatom 589 -340 5 0 0 0 - - -;
#X obj 589 -311 / 10;
#X floatatom 589 -283 5 0 0 0 - - -;
#X obj 644 -249 pow;
#X floatatom 644 -219 10 0 0 0 - - -;
#X msg 644 -339 10;
#X obj 644 -369 t b f, f 6;
#X obj 644 -429 inlet;
#X obj 654 -399 s pechon;
#X floatatom 683 -339 5 0 0 0 - - -;
#X obj 683 -310 / 10;
#X floatatom 683 -282 5 0 0 0 - - -;
#X obj 626 -184 +;
#X obj 49 -311 / 10;
#X obj 813 -71 t b f;
#X floatatom 813 -18 5 0 0 0 - - -;
#X obj 871 -43 > -40;
#X obj 813 8 spigot;
#X obj 871 -12 tgl 15 0 empty empty empty 17 7 0 10 -262144 -1 -1 0
1;
#X obj 871 8 == 0;
#X msg 871 34 -40;
#X floatatom 813 60 5 0 0 0 - - -;
#X obj 744 -249 pow;
#X floatatom 744 -219 10 0 0 0 - - -;
#X msg 744 -339 10;
#X obj 744 -369 t b f, f 6;
#X obj 744 -429 inlet;
#X obj 754 -399 s pechon;
#X obj 726 -187 +;
#X floatatom 783 -339 5 0 0 0 - - -;
#X obj 783 -310 / 10;
#X floatatom 783 -282 5 0 0 0 - - -;
#X obj 831 -249 pow;
#X floatatom 831 -219 10 0 0 0 - - -;
#X msg 831 -339 10;
#X obj 831 -369 t b f, f 6;
#X obj 831 -429 inlet;
#X obj 841 -399 s pechon;
#X obj 813 -187 +;
#X floatatom 870 -339 5 0 0 0 - - -;
#X obj 870 -310 / 10;
#X floatatom 870 -282 5 0 0 0 - - -;
#X connect 0 0 81 0;
#X connect 1 0 2 1;
#X connect 2 0 3 0;
#X connect 3 0 7 0;
#X connect 4 0 2 0;
#X connect 5 0 4 0;
#X connect 5 1 0 0;
#X connect 6 0 5 0;
#X connect 7 0 16 0;
#X connect 8 0 9 0;
#X connect 9 0 10 0;
#X connect 10 0 11 1;
#X connect 11 0 12 0;
#X connect 12 0 7 1;
#X connect 13 0 11 0;
#X connect 14 0 13 0;
#X connect 14 1 8 0;
#X connect 15 0 14 0;
#X connect 15 0 34 0;
#X connect 16 0 25 0;
#X connect 17 0 18 0;
#X connect 18 0 19 0;
#X connect 19 0 20 1;
#X connect 20 0 21 0;
#X connect 21 0 16 1;
#X connect 22 0 20 0;
#X connect 23 0 22 0;
#X connect 23 1 17 0;
#X connect 24 0 23 0;
#X connect 24 0 35 0;
#X connect 25 0 52 0;
#X connect 26 0 27 0;
#X connect 27 0 28 0;
#X connect 28 0 29 1;
#X connect 29 0 30 0;
#X connect 30 0 25 1;
#X connect 31 0 29 0;
#X connect 32 0 31 0;
#X connect 32 1 26 0;
#X connect 33 0 32 0;
#X connect 33 0 36 0;
#X connect 37 0 38 0;
#X connect 38 0 39 0;
#X connect 39 0 40 1;
#X connect 40 0 41 0;
#X connect 41 0 52 1;
#X connect 42 0 40 0;
#X connect 43 0 42 0;
#X connect 43 1 37 0;
#X connect 44 0 43 0;
#X connect 44 0 50 0;
#X connect 45 0 46 0;
#X connect 46 0 53 1;
#X connect 47 0 45 0;
#X connect 48 0 47 0;
#X connect 48 1 65 0;
#X connect 49 0 48 0;
#X connect 49 0 51 0;
#X connect 52 0 53 0;
#X connect 53 0 64 0;
#X connect 54 0 55 0;
#X connect 55 0 64 1;
#X connect 56 0 54 0;
#X connect 57 0 56 0;
#X connect 57 1 68 0;
#X connect 58 0 57 0;
#X connect 58 0 59 0;
#X connect 60 0 61 0;
#X connect 61 0 62 0;
#X connect 62 0 82 0;
#X connect 64 0 80 0;
#X connect 65 0 66 0;
#X connect 66 0 67 0;
#X connect 67 0 45 1;
#X connect 68 0 69 0;
#X connect 69 0 70 0;
#X connect 70 0 54 1;
#X connect 71 0 72 0;
#X connect 72 0 80 1;
#X connect 73 0 71 0;
#X connect 74 0 73 0;
#X connect 74 1 77 0;
#X connect 75 0 74 0;
#X connect 75 0 76 0;
#X connect 77 0 78 0;
#X connect 78 0 79 0;
#X connect 79 0 71 1;
#X connect 80 0 96 0;
#X connect 81 0 1 0;
#X connect 82 0 83 0;
#X connect 82 1 84 0;
#X connect 82 1 83 0;
#X connect 83 0 85 0;
#X connect 84 0 86 0;
#X connect 85 0 89 0;
#X connect 86 0 85 1;
#X connect 86 0 87 0;
#X connect 87 0 88 0;
#X connect 88 0 89 0;
#X connect 89 0 63 0;
#X connect 90 0 91 0;
#X connect 91 0 96 1;
#X connect 92 0 90 0;
#X connect 93 0 92 0;
#X connect 93 1 97 0;
#X connect 94 0 93 0;
#X connect 94 0 95 0;
#X connect 96 0 106 0;
#X connect 97 0 98 0;
#X connect 98 0 99 0;
#X connect 99 0 90 1;
#X connect 100 0 101 0;
#X connect 101 0 106 1;
#X connect 102 0 100 0;
#X connect 103 0 102 0;
#X connect 103 1 107 0;
#X connect 104 0 103 0;
#X connect 104 0 105 0;
#X connect 106 0 60 0;
#X connect 107 0 108 0;
#X connect 108 0 109 0;
#X connect 109 0 100 1;
