#N canvas 19 486 520 465 10;
#X obj 20 343 reverb, f 8;
#X obj 20 313 tremolo, f 8;
#X obj 20 403 dac~, f 8;
#X obj 210 20 loadbang;
#X obj 20 20 cnv 15 176 162 empty empty empty 27 9 0 14 -166177 -1
0;
#X obj 20 253 afinador;
#X obj 20 283 consola, f 8;
#X obj 20 373 salida, f 8;
#X obj 95 313 temperamentos;
#N canvas 662 201 371 474 atajos 0;
#X obj 156 22 keyname;
#X symbolatom 195 52 10 0 0 0 - - -;
#X text 153 153 Registros;
#X obj 155 202 s r_principal16;
#X floatatom 156 52 5 0 0 0 - - -;
#X obj 169 232 s r_principal8;
#X obj 183 262 s r_bordon16;
#X obj 197 292 s r_flauta8;
#X obj 211 322 s r_flauta4;
#X obj 218 352 s r_scharf6h;
#X obj 239 382 s r_celeste8;
#X obj 156 82 spigot;
#X obj 253 412 s r_reg0;
#X obj 267 202 s r_reg1;
#X obj 155 172 sel a s d f g r t q w z;
#X obj 281 232 s r_ottava4;
#X obj 20 19 key;
#X floatatom 20 41 5 0 0 0 - - -;
#N canvas 684 413 470 243 fundamentales 0;
#X obj 11 10 inlet;
#X obj 174 112 s r_root;
#X msg 39 72 0;
#X msg 72 72 1;
#X msg 106 72 2;
#X msg 140 72 3;
#X msg 174 71 4;
#X msg 207 71 5;
#X msg 241 71 6;
#X msg 275 71 7;
#X msg 309 71 8;
#X msg 342 71 9;
#X msg 376 71 10;
#X msg 410 71 11;
#X obj 39 42 sel F1 F2 F3 F4 F5 F6 F7 F8 F9 F10 F11 F12, f 68;
#X obj 92 175 outlet;
#X obj 11 114 sel Right Left;
#X msg 11 141 next;
#X msg 51 141 prev;
#X obj 11 175 s r_root;
#X connect 0 0 16 0;
#X connect 2 0 1 0;
#X connect 3 0 1 0;
#X connect 4 0 1 0;
#X connect 5 0 1 0;
#X connect 6 0 1 0;
#X connect 7 0 1 0;
#X connect 8 0 1 0;
#X connect 9 0 1 0;
#X connect 10 0 1 0;
#X connect 11 0 1 0;
#X connect 12 0 1 0;
#X connect 13 0 1 0;
#X connect 14 0 2 0;
#X connect 14 1 3 0;
#X connect 14 2 4 0;
#X connect 14 3 5 0;
#X connect 14 4 6 0;
#X connect 14 5 7 0;
#X connect 14 6 8 0;
#X connect 14 7 9 0;
#X connect 14 8 10 0;
#X connect 14 9 11 0;
#X connect 14 10 12 0;
#X connect 14 11 13 0;
#X connect 16 0 17 0;
#X connect 16 1 18 0;
#X connect 16 2 15 0;
#X connect 17 0 19 0;
#X connect 18 0 19 0;
#X restore 156 104 pd fundamentales;
#N canvas 649 409 379 332 temperamentos 0;
#X obj 20 11 inlet;
#X msg 39 81 0;
#X msg 69 82 1;
#X obj 39 131 s r_temp-sel;
#X msg 99 82 2;
#X msg 129 82 3;
#X msg 160 82 4;
#X msg 190 82 5;
#X msg 220 82 6;
#X msg 251 82 7;
#X msg 281 82 8;
#X msg 311 82 9;
#X obj 39 45 sel 161 8482 163 162 8734 167 182 8226 170 186, f 51
;
#X obj 101 232 outlet;
#X msg 20 198 next;
#X msg 60 198 prev;
#X obj 20 232 s r_temp-sel;
#X obj 20 171 sel Down Up, f 14;
#X connect 0 0 17 0;
#X connect 1 0 3 0;
#X connect 2 0 3 0;
#X connect 4 0 3 0;
#X connect 5 0 3 0;
#X connect 6 0 3 0;
#X connect 7 0 3 0;
#X connect 8 0 3 0;
#X connect 9 0 3 0;
#X connect 10 0 3 0;
#X connect 11 0 3 0;
#X connect 12 0 1 0;
#X connect 12 1 2 0;
#X connect 12 2 4 0;
#X connect 12 3 5 0;
#X connect 12 4 6 0;
#X connect 12 5 7 0;
#X connect 12 6 8 0;
#X connect 12 7 9 0;
#X connect 12 8 10 0;
#X connect 12 9 11 0;
#X connect 14 0 16 0;
#X connect 15 0 16 0;
#X connect 17 0 14 0;
#X connect 17 1 15 0;
#X connect 17 2 13 0;
#X restore 155 127 pd temperamentos;
#N canvas 836 366 91 176 panic 0;
#X obj 12 6 inlet;
#X msg 11 57 bang;
#X obj 11 82 s r_panic;
#X obj 11 32 sel 27;
#X obj 11 107 outlet;
#X connect 0 0 3 0;
#X connect 1 0 2 0;
#X connect 3 0 1 0;
#X connect 3 1 4 0;
#X restore 20 85 pd panic;
#N canvas 555 395 637 526 presets 0;
#X obj 9 9 inlet;
#X obj 9 31 sel 48 49 50 51 52 53 54 55 56 57 97 98 99 100 101 102
, f 97;
#X obj 593 394 outlet;
#X msg 9 56 load 0;
#X msg 45 81 load 1;
#X msg 81 56 load 2;
#X msg 117 81 load 3;
#X msg 153 56 load 4;
#X msg 189 81 load 5;
#X msg 225 56 load 6;
#X msg 261 81 load 7;
#X msg 298 56 load 8;
#X msg 334 81 load 9;
#X msg 370 56 load 10;
#X msg 406 81 load 11;
#X msg 443 57 load 12;
#X msg 479 82 load 13;
#X msg 515 57 load 14;
#X msg 551 82 load 15;
#X obj 261 116 s r_presets;
#X obj 7 170 sel 41 33 64 35 36 37 94 38 42 40 65 66 67 68 69 70,
f 98;
#X obj 262 262 s r_presets;
#X msg 7 202 store 0;
#X msg 43 227 store 1;
#X msg 80 202 store 2;
#X msg 116 227 store 3;
#X msg 153 202 store 4;
#X msg 189 227 store 5;
#X msg 226 202 store 6;
#X msg 262 227 store 7;
#X msg 299 202 store 8;
#X msg 336 227 store 9;
#X msg 372 202 store 10;
#X msg 409 227 store 11;
#X msg 445 203 store 12;
#X msg 482 228 store 13;
#X msg 518 203 store 14;
#X msg 555 228 store 15;
#X obj 263 394 s r_presets;
#X obj 8 302 sel 8218 8260 8364 8249 8250 64257 64258 8225 176 183
197 305 199 206 180 207, f 98;
#X msg 8 334 clear 0;
#X msg 44 359 clear 1;
#X msg 81 334 clear 2;
#X msg 117 359 clear 3;
#X msg 154 334 clear 4;
#X msg 190 359 clear 5;
#X msg 227 334 clear 6;
#X msg 263 359 clear 7;
#X msg 300 334 clear 8;
#X msg 337 359 clear 9;
#X msg 373 334 clear 10;
#X msg 410 359 clear 11;
#X msg 446 335 clear 12;
#X msg 483 360 clear 13;
#X msg 519 335 clear 14;
#X msg 556 360 clear 15;
#X connect 0 0 1 0;
#X connect 1 0 3 0;
#X connect 1 1 4 0;
#X connect 1 2 5 0;
#X connect 1 3 6 0;
#X connect 1 4 7 0;
#X connect 1 5 8 0;
#X connect 1 6 9 0;
#X connect 1 7 10 0;
#X connect 1 8 11 0;
#X connect 1 9 12 0;
#X connect 1 10 13 0;
#X connect 1 11 14 0;
#X connect 1 12 15 0;
#X connect 1 13 16 0;
#X connect 1 14 17 0;
#X connect 1 15 18 0;
#X connect 1 16 20 0;
#X connect 3 0 19 0;
#X connect 4 0 19 0;
#X connect 5 0 19 0;
#X connect 6 0 19 0;
#X connect 7 0 19 0;
#X connect 8 0 19 0;
#X connect 9 0 19 0;
#X connect 10 0 19 0;
#X connect 11 0 19 0;
#X connect 12 0 19 0;
#X connect 13 0 19 0;
#X connect 14 0 19 0;
#X connect 15 0 19 0;
#X connect 16 0 19 0;
#X connect 17 0 19 0;
#X connect 18 0 19 0;
#X connect 20 0 22 0;
#X connect 20 1 23 0;
#X connect 20 2 24 0;
#X connect 20 3 25 0;
#X connect 20 4 26 0;
#X connect 20 5 27 0;
#X connect 20 6 28 0;
#X connect 20 7 29 0;
#X connect 20 8 30 0;
#X connect 20 9 31 0;
#X connect 20 10 32 0;
#X connect 20 11 33 0;
#X connect 20 12 34 0;
#X connect 20 13 35 0;
#X connect 20 14 36 0;
#X connect 20 15 37 0;
#X connect 20 16 39 0;
#X connect 22 0 21 0;
#X connect 23 0 21 0;
#X connect 24 0 21 0;
#X connect 25 0 21 0;
#X connect 26 0 21 0;
#X connect 27 0 21 0;
#X connect 28 0 21 0;
#X connect 29 0 21 0;
#X connect 30 0 21 0;
#X connect 31 0 21 0;
#X connect 32 0 21 0;
#X connect 33 0 21 0;
#X connect 34 0 21 0;
#X connect 35 0 21 0;
#X connect 36 0 21 0;
#X connect 37 0 21 0;
#X connect 39 0 40 0;
#X connect 39 1 41 0;
#X connect 39 2 42 0;
#X connect 39 3 43 0;
#X connect 39 4 44 0;
#X connect 39 5 45 0;
#X connect 39 6 46 0;
#X connect 39 7 47 0;
#X connect 39 8 48 0;
#X connect 39 9 49 0;
#X connect 39 10 50 0;
#X connect 39 11 51 0;
#X connect 39 12 52 0;
#X connect 39 13 53 0;
#X connect 39 14 54 0;
#X connect 39 15 55 0;
#X connect 39 16 2 0;
#X connect 40 0 38 0;
#X connect 41 0 38 0;
#X connect 42 0 38 0;
#X connect 43 0 38 0;
#X connect 44 0 38 0;
#X connect 45 0 38 0;
#X connect 46 0 38 0;
#X connect 47 0 38 0;
#X connect 48 0 38 0;
#X connect 49 0 38 0;
#X connect 50 0 38 0;
#X connect 51 0 38 0;
#X connect 52 0 38 0;
#X connect 53 0 38 0;
#X connect 54 0 38 0;
#X connect 55 0 38 0;
#X restore 20 107 pd presets;
#X connect 0 0 4 0;
#X connect 0 1 1 0;
#X connect 1 0 11 0;
#X connect 4 0 11 1;
#X connect 11 0 18 0;
#X connect 14 0 3 0;
#X connect 14 1 5 0;
#X connect 14 2 6 0;
#X connect 14 3 7 0;
#X connect 14 4 8 0;
#X connect 14 5 9 0;
#X connect 14 6 10 0;
#X connect 14 7 12 0;
#X connect 14 8 13 0;
#X connect 14 9 15 0;
#X connect 16 0 17 0;
#X connect 17 0 20 0;
#X connect 18 0 19 0;
#X connect 20 0 21 0;
#X restore 95 373 pd atajos de teclado;
#N canvas 628 1228 150 165 seleccion 0;
#X obj 20 10 r s_diapasel;
#X obj 20 50 sel 0 1 2;
#X msg 5 90 415;
#X msg 37 90 432;
#X msg 70 90 440;
#X obj 37 130 s r_diapason;
#X connect 0 0 1 0;
#X connect 1 0 2 0;
#X connect 1 1 3 0;
#X connect 1 2 4 0;
#X connect 2 0 5 0;
#X connect 3 0 5 0;
#X connect 4 0 5 0;
#X restore 95 343 pd seleccion de diapason;
#N canvas 358 657 218 248 controles 0;
#X obj 126 115 ctlin 1;
#X floatatom 126 137 5 0 0 0 - - -;
#X obj 126 183 s r_lfo;
#X text 123 95 LFO;
#X text 18 97 volumen;
#X obj 19 118 ctlin 7;
#X floatatom 19 140 5 0 0 0 - - -;
#X obj 19 184 s r_vol;
#X obj 20 22 ui.midi @size 180 15 @receive "(null)" @send "(null)"
@pinned 0 @background_color 0.93 0.93 0.93 1 @border_color 0.6 0.6
0.6 1 @label_color 0 0 0 1 @text_color 0 0 0 1 @active_color 0.63 0.88
0 1 @fontname "Helvetica" @fontweight "normal" @fontslant "roman" @fontsize
11 @label "(null)" @label_inner 0 @label_side "top" @label_align "left"
@label_valign "top" @label_margins 0 0 @hex 0 @notes 1 @cc 1 @program
1 @touch 1 @pitchwheel 1 @sysex 1;
#N canvas 1206 116 708 507 tubos 0;
#X floatatom 30 263 5 0 0 0 - - -;
#N canvas 735 1176 100 159 mtor 0;
#X obj 15 10 inlet;
#X obj 15 33 * 100;
#X obj 15 56 / 127;
#X obj 15 79 - 40;
#X floatatom 15 102 5 0 0 0 - - -;
#X obj 15 124 outlet;
#X connect 0 0 1 0;
#X connect 1 0 2 0;
#X connect 2 0 3 0;
#X connect 3 0 4 0;
#X connect 4 0 5 0;
#X restore 30 286 pd mtor;
#X floatatom 176 263 5 0 0 0 - - -;
#N canvas 735 1176 100 159 mtor 0;
#X obj 15 10 inlet;
#X obj 15 33 * 100;
#X obj 15 56 / 127;
#X obj 15 79 - 40;
#X floatatom 15 102 5 0 0 0 - - -;
#X obj 15 124 outlet;
#X connect 0 0 1 0;
#X connect 1 0 2 0;
#X connect 2 0 3 0;
#X connect 3 0 4 0;
#X connect 4 0 5 0;
#X restore 176 285 pd mtor;
#X floatatom 100 263 5 0 0 0 - - -;
#N canvas 735 1176 100 159 mtor 0;
#X obj 15 10 inlet;
#X obj 15 33 * 100;
#X obj 15 56 / 127;
#X obj 15 79 - 40;
#X floatatom 15 102 5 0 0 0 - - -;
#X obj 15 124 outlet;
#X connect 0 0 1 0;
#X connect 1 0 2 0;
#X connect 2 0 3 0;
#X connect 3 0 4 0;
#X connect 4 0 5 0;
#X restore 100 288 pd mtor;
#X floatatom 252 263 5 0 0 0 - - -;
#N canvas 735 1176 100 159 mtor 0;
#X obj 15 10 inlet;
#X obj 15 33 * 100;
#X obj 15 56 / 127;
#X obj 15 79 - 40;
#X floatatom 15 102 5 0 0 0 - - -;
#X obj 15 124 outlet;
#X connect 0 0 1 0;
#X connect 1 0 2 0;
#X connect 2 0 3 0;
#X connect 3 0 4 0;
#X connect 4 0 5 0;
#X restore 252 285 pd mtor;
#X floatatom 334 263 5 0 0 0 - - -;
#N canvas 735 1176 100 159 mtor 0;
#X obj 15 10 inlet;
#X obj 15 33 * 100;
#X obj 15 56 / 127;
#X obj 15 79 - 40;
#X floatatom 15 102 5 0 0 0 - - -;
#X obj 15 124 outlet;
#X connect 0 0 1 0;
#X connect 1 0 2 0;
#X connect 2 0 3 0;
#X connect 3 0 4 0;
#X connect 4 0 5 0;
#X restore 334 285 pd mtor;
#X floatatom 410 263 5 0 0 0 - - -;
#N canvas 735 1176 100 159 mtor 0;
#X obj 15 10 inlet;
#X obj 15 33 * 100;
#X obj 15 56 / 127;
#X obj 15 79 - 40;
#X floatatom 15 102 5 0 0 0 - - -;
#X obj 15 124 outlet;
#X connect 0 0 1 0;
#X connect 1 0 2 0;
#X connect 2 0 3 0;
#X connect 3 0 4 0;
#X connect 4 0 5 0;
#X restore 410 285 pd mtor;
#X obj 410 239 ctlin 5;
#X floatatom 486 263 5 0 0 0 - - -;
#N canvas 735 1176 100 159 mtor 0;
#X obj 15 10 inlet;
#X obj 15 33 * 100;
#X obj 15 56 / 127;
#X obj 15 79 - 40;
#X floatatom 15 102 5 0 0 0 - - -;
#X obj 15 124 outlet;
#X connect 0 0 1 0;
#X connect 1 0 2 0;
#X connect 2 0 3 0;
#X connect 3 0 4 0;
#X connect 4 0 5 0;
#X restore 486 285 pd mtor;
#X floatatom 561 263 5 0 0 0 - - -;
#N canvas 735 1176 100 159 mtor 0;
#X obj 15 10 inlet;
#X obj 15 33 * 100;
#X obj 15 56 / 127;
#X obj 15 79 - 40;
#X floatatom 15 102 5 0 0 0 - - -;
#X obj 15 124 outlet;
#X connect 0 0 1 0;
#X connect 1 0 2 0;
#X connect 2 0 3 0;
#X connect 3 0 4 0;
#X connect 4 0 5 0;
#X restore 561 285 pd mtor;
#X floatatom 486 59 5 0 0 0 - - -;
#N canvas 735 1176 100 159 mtor 0;
#X obj 15 10 inlet;
#X obj 15 33 * 100;
#X obj 15 56 / 127;
#X obj 15 79 - 40;
#X floatatom 15 102 5 0 0 0 - - -;
#X obj 15 124 outlet;
#X connect 0 0 1 0;
#X connect 1 0 2 0;
#X connect 2 0 3 0;
#X connect 3 0 4 0;
#X connect 4 0 5 0;
#X restore 486 81 pd mtor;
#X text 30 15 Tubos;
#X obj 30 239 ctlin 0;
#X obj 252 239 ctlin 3;
#X obj 334 239 ctlin 4;
#X obj 486 239 ctlin 6;
#X floatatom 176 59 5 0 0 0 - - -;
#N canvas 735 1176 100 159 mtor 0;
#X obj 15 10 inlet;
#X obj 15 33 * 100;
#X obj 15 56 / 127;
#X obj 15 79 - 40;
#X floatatom 15 102 5 0 0 0 - - -;
#X obj 15 124 outlet;
#X connect 0 0 1 0;
#X connect 1 0 2 0;
#X connect 2 0 3 0;
#X connect 3 0 4 0;
#X connect 4 0 5 0;
#X restore 176 81 pd mtor;
#X floatatom 562 59 5 0 0 0 - - -;
#N canvas 735 1176 100 159 mtor 0;
#X obj 15 10 inlet;
#X obj 15 33 * 100;
#X obj 15 56 / 127;
#X obj 15 79 - 40;
#X floatatom 15 102 5 0 0 0 - - -;
#X obj 15 124 outlet;
#X connect 0 0 1 0;
#X connect 1 0 2 0;
#X connect 2 0 3 0;
#X connect 3 0 4 0;
#X connect 4 0 5 0;
#X restore 562 81 pd mtor;
#X floatatom 410 59 5 0 0 0 - - -;
#N canvas 735 1176 100 159 mtor 0;
#X obj 15 10 inlet;
#X obj 15 33 * 100;
#X obj 15 56 / 127;
#X obj 15 79 - 40;
#X floatatom 15 102 5 0 0 0 - - -;
#X obj 15 124 outlet;
#X connect 0 0 1 0;
#X connect 1 0 2 0;
#X connect 2 0 3 0;
#X connect 3 0 4 0;
#X connect 4 0 5 0;
#X restore 410 81 pd mtor;
#X obj 410 35 ctlin 21;
#X floatatom 334 59 5 0 0 0 - - -;
#N canvas 735 1176 100 159 mtor 0;
#X obj 15 10 inlet;
#X obj 15 33 * 100;
#X obj 15 56 / 127;
#X obj 15 79 - 40;
#X floatatom 15 102 5 0 0 0 - - -;
#X obj 15 124 outlet;
#X connect 0 0 1 0;
#X connect 1 0 2 0;
#X connect 2 0 3 0;
#X connect 3 0 4 0;
#X connect 4 0 5 0;
#X restore 334 81 pd mtor;
#X floatatom 252 59 5 0 0 0 - - -;
#N canvas 735 1176 100 159 mtor 0;
#X obj 15 10 inlet;
#X obj 15 33 * 100;
#X obj 15 56 / 127;
#X obj 15 79 - 40;
#X floatatom 15 102 5 0 0 0 - - -;
#X obj 15 124 outlet;
#X connect 0 0 1 0;
#X connect 1 0 2 0;
#X connect 2 0 3 0;
#X connect 3 0 4 0;
#X connect 4 0 5 0;
#X restore 252 81 pd mtor;
#X obj 334 35 ctlin 20;
#X obj 252 35 ctlin 19;
#X obj 486 35 ctlin 22;
#X obj 562 35 ctlin 23;
#X floatatom 30 59 5 0 0 0 - - -;
#N canvas 1100 117 100 159 mtor 0;
#X obj 15 10 inlet;
#X obj 15 33 * 100;
#X obj 15 56 / 127;
#X obj 15 79 - 40;
#X floatatom 15 102 5 0 0 0 - - -;
#X obj 15 124 outlet;
#X connect 0 0 1 0;
#X connect 1 0 2 0;
#X connect 2 0 3 0;
#X connect 3 0 4 0;
#X connect 4 0 5 0;
#X restore 30 81 pd mtor;
#X obj 30 35 ctlin 16;
#X floatatom 100 59 5 0 0 0 - - -;
#N canvas 735 1176 100 159 mtor 0;
#X obj 15 10 inlet;
#X obj 15 33 * 100;
#X obj 15 56 / 127;
#X obj 15 79 - 40;
#X floatatom 15 102 5 0 0 0 - - -;
#X obj 15 124 outlet;
#X connect 0 0 1 0;
#X connect 1 0 2 0;
#X connect 2 0 3 0;
#X connect 3 0 4 0;
#X connect 4 0 5 0;
#X restore 100 81 pd mtor;
#X obj 176 239 ctlin 2;
#X obj 176 35 ctlin 18;
#X obj 100 35 ctlin 17;
#X obj 100 239 ctlin 8;
#X obj 562 239 ctlin 9;
#X floatatom 30 307 5 0 0 0 - - -;
#X msg 30 338 set slider 0 \$1 \, bang;
#X obj 30 363 s r_consola;
#X floatatom 100 310 5 0 0 0 - - -;
#X floatatom 176 307 5 0 0 0 - - -;
#X floatatom 252 307 5 0 0 0 - - -;
#X floatatom 334 307 5 0 0 0 - - -;
#X floatatom 410 307 5 0 0 0 - - -;
#X floatatom 486 307 5 0 0 0 - - -;
#X floatatom 561 307 5 0 0 0 - - -;
#X floatatom 30 103 5 0 0 0 - - -;
#X floatatom 100 103 5 0 0 0 - - -;
#X floatatom 176 103 5 0 0 0 - - -;
#X floatatom 252 103 5 0 0 0 - - -;
#X floatatom 334 103 5 0 0 0 - - -;
#X floatatom 410 103 5 0 0 0 - - -;
#X floatatom 486 103 5 0 0 0 - - -;
#X floatatom 562 103 5 0 0 0 - - -;
#X obj 100 413 s r_consola;
#X msg 100 388 set slider 1 \$1 \, bang;
#X obj 176 363 s r_consola;
#X msg 176 338 set slider 2 \$1 \, bang;
#X obj 30 156 s r_consola;
#X msg 30 131 set slider 10 \$1 \, bang;
#X obj 100 204 s r_consola;
#X msg 100 179 set slider 3 \$1 \, bang;
#X obj 176 156 s r_consola;
#X msg 176 131 set slider 14 \$1 \, bang;
#X obj 252 414 s r_consola;
#X msg 252 389 set slider 4 \$1 \, bang;
#X obj 252 204 s r_consola;
#X msg 252 179 set slider 15 \$1 \, bang;
#X obj 334 362 s r_consola;
#X msg 334 337 set slider 5 \$1 \, bang;
#X obj 334 155 s r_consola;
#X msg 334 130 set slider 8 \$1 \, bang;
#X obj 410 414 s r_consola;
#X msg 410 389 set slider 6 \$1 \, bang;
#X obj 410 205 s r_consola;
#X msg 410 179 set slider 7 \$1 \, bang;
#X obj 485 361 s r_consola;
#X msg 485 336 set slider 9 \$1 \, bang;
#X obj 488 154 s r_consola;
#X msg 488 129 set slider 11 \$1 \, bang;
#X obj 561 416 s r_consola;
#X msg 561 391 set slider 12 \$1 \, bang;
#X obj 562 202 s r_consola;
#X msg 562 177 set slider 13 \$1 \, bang;
#X connect 0 0 1 0;
#X connect 1 0 49 0;
#X connect 2 0 3 0;
#X connect 3 0 53 0;
#X connect 4 0 5 0;
#X connect 5 0 52 0;
#X connect 6 0 7 0;
#X connect 7 0 54 0;
#X connect 8 0 9 0;
#X connect 9 0 55 0;
#X connect 10 0 11 0;
#X connect 11 0 56 0;
#X connect 12 0 10 0;
#X connect 13 0 14 0;
#X connect 14 0 57 0;
#X connect 15 0 16 0;
#X connect 16 0 58 0;
#X connect 17 0 18 0;
#X connect 18 0 65 0;
#X connect 20 0 0 0;
#X connect 21 0 6 0;
#X connect 22 0 8 0;
#X connect 23 0 13 0;
#X connect 24 0 25 0;
#X connect 25 0 61 0;
#X connect 26 0 27 0;
#X connect 27 0 66 0;
#X connect 28 0 29 0;
#X connect 29 0 64 0;
#X connect 30 0 28 0;
#X connect 31 0 32 0;
#X connect 32 0 63 0;
#X connect 33 0 34 0;
#X connect 34 0 62 0;
#X connect 35 0 31 0;
#X connect 36 0 33 0;
#X connect 37 0 17 0;
#X connect 38 0 26 0;
#X connect 39 0 40 0;
#X connect 40 0 59 0;
#X connect 41 0 39 0;
#X connect 42 0 43 0;
#X connect 43 0 60 0;
#X connect 44 0 2 0;
#X connect 45 0 24 0;
#X connect 46 0 42 0;
#X connect 47 0 4 0;
#X connect 48 0 15 0;
#X connect 49 0 50 0;
#X connect 50 0 51 0;
#X connect 52 0 68 0;
#X connect 53 0 70 0;
#X connect 54 0 78 0;
#X connect 55 0 82 0;
#X connect 56 0 86 0;
#X connect 57 0 90 0;
#X connect 58 0 94 0;
#X connect 59 0 72 0;
#X connect 60 0 74 0;
#X connect 61 0 76 0;
#X connect 62 0 80 0;
#X connect 63 0 84 0;
#X connect 64 0 88 0;
#X connect 65 0 92 0;
#X connect 66 0 96 0;
#X connect 68 0 67 0;
#X connect 70 0 69 0;
#X connect 72 0 71 0;
#X connect 74 0 73 0;
#X connect 76 0 75 0;
#X connect 78 0 77 0;
#X connect 80 0 79 0;
#X connect 82 0 81 0;
#X connect 84 0 83 0;
#X connect 86 0 85 0;
#X connect 88 0 87 0;
#X connect 90 0 89 0;
#X connect 92 0 91 0;
#X connect 94 0 93 0;
#X connect 96 0 95 0;
#X restore 21 51 pd tubos;
#X obj 126 159 / 127;
#X obj 19 162 / 127;
#N canvas 0 25 521 641 rogistros 0;
#X msg 169 329 0;
#X msg 19 329 1;
#X obj 169 299 r s_reg0;
#X obj 19 299 r s_reg1;
#X msg 49 329 0;
#X obj 19 59 s r_principal16;
#X obj 119 59 s r_flauta8;
#X obj 19 119 s r_principal8;
#X obj 119 119 s r_flauta4;
#X obj 19 179 s r_bordon16;
#X obj 19 29 ctlin 32;
#X obj 119 29 ctlin 33;
#X obj 19 89 ctlin 48;
#X obj 119 89 ctlin 49;
#X obj 19 149 ctlin 64;
#X obj 119 149 ctlin 65;
#X obj 24 402 r s_principal16;
#X obj 24 462 r s_principal8;
#X obj 24 522 r s_bordon16;
#X obj 134 402 r s_flauta8;
#X obj 134 462 r s_flauta4;
#X obj 134 522 r s_ottava4;
#X obj 119 179 s r_ottava4;
#X obj 205 177 s r_scharf6h;
#X obj 311 58 s r_celeste8;
#X obj 228 521 r s_scharf6h;
#X obj 339 396 r s_celeste8;
#X obj 433 306 sel 127 0;
#X obj 433 281 ctlin 46;
#X obj 433 331 s r_reg0;
#X obj 323 306 sel 127 0;
#X obj 323 281 ctlin 58;
#X obj 323 331 s r_reg1;
#X text 18 5 registros;
#X obj 24 432 ctlout 32 17;
#X obj 24 492 ctlout 48 17;
#X obj 24 552 ctlout 64 17;
#X obj 134 432 ctlout 33 17;
#X obj 134 492 ctlout 49 17;
#X obj 134 552 ctlout 65 17;
#X obj 230 400 r s_oboe;
#X obj 230 433 ctlout 34 17;
#X obj 207 30 ctlin 34;
#X obj 208 58 s r_oboe;
#X obj 311 28 ctlin 35;
#X obj 205 147 ctlin 66;
#X obj 208 90 ctlin 50;
#X obj 208 120 s r_viola8;
#X obj 228 551 ctlout 66 17;
#X obj 339 426 ctlout 35 17;
#X obj 231 462 r s_viola8;
#X obj 231 492 ctlout 50 17;
#X connect 0 0 5 0;
#X connect 0 0 7 0;
#X connect 0 0 9 0;
#X connect 0 0 6 0;
#X connect 0 0 8 0;
#X connect 0 0 22 0;
#X connect 0 0 23 0;
#X connect 0 0 24 0;
#X connect 0 0 43 0;
#X connect 0 0 47 0;
#X connect 1 0 5 0;
#X connect 1 0 7 0;
#X connect 1 0 9 0;
#X connect 1 0 6 0;
#X connect 1 0 8 0;
#X connect 1 0 22 0;
#X connect 1 0 43 0;
#X connect 1 0 47 0;
#X connect 2 0 0 0;
#X connect 3 0 1 0;
#X connect 3 0 4 0;
#X connect 4 0 24 0;
#X connect 4 0 23 0;
#X connect 10 0 5 0;
#X connect 11 0 6 0;
#X connect 12 0 7 0;
#X connect 13 0 8 0;
#X connect 14 0 9 0;
#X connect 15 0 22 0;
#X connect 16 0 34 0;
#X connect 17 0 35 0;
#X connect 18 0 36 0;
#X connect 19 0 37 0;
#X connect 20 0 38 0;
#X connect 21 0 39 0;
#X connect 25 0 48 0;
#X connect 26 0 49 0;
#X connect 27 0 29 0;
#X connect 28 0 27 0;
#X connect 30 0 32 0;
#X connect 31 0 30 0;
#X connect 40 0 41 0;
#X connect 42 0 43 0;
#X connect 44 0 24 0;
#X connect 45 0 23 0;
#X connect 46 0 47 0;
#X connect 50 0 51 0;
#X restore 123 48 pd rogistros;
#X connect 0 0 1 0;
#X connect 1 0 10 0;
#X connect 5 0 6 0;
#X connect 6 0 11 0;
#X connect 10 0 2 0;
#X connect 11 0 7 0;
#X restore 95 403 pd controles MIDI;
#X obj 95 283 registros;
#X text 90 80 Op. 1;
#X text 66 136 Pablo Herrera;
#X obj 20 223 unpack f f;
#X obj 95 253 s r_teclas;
#X obj 95 223 pack f f;
#X obj 20 193 r outkey;
#X obj 37 37 ui.label @size 140 47 @receive "(null)" @send "(null)"
@pinned 1 @background_color 0.62842 0.569135 0.505898 1 @border_color
0.6 0.6 0.6 1 @label_color 0 0 0 1 @text_color 0 0 0 1 @label "(null)"
@label_inner 0 @label_side "top" @label_align "left" @label_valign
"top" @label_margins 0 0 @align "center" @text "Órgano" "Tubular"
"Afinable" @fontname "Helvetica" @fontweight "normal" @fontslant "roman"
@fontsize 14 @margin_top 5 @margin_left 5 @margin_bottom 5 @margin_right
5;
#X text 35 149 Oscar Rodríguez-Castillo;
#X msg 210 50 \; pd dsp 1 \; r_desvio 36 \; r_teclas @size 974 128
\; r_teclas @background_color 0.94 0.85 0.76 1 \; r_room 90 \; r_damping
20 \; r_wet 90 \; r_dry 110 \; r_presets read \, load 0 \;;
#X obj 95 193 notein;
#X connect 0 0 7 0;
#X connect 0 1 7 1;
#X connect 1 0 0 0;
#X connect 3 0 21 0;
#X connect 5 0 6 0;
#X connect 6 0 1 0;
#X connect 7 0 2 0;
#X connect 7 1 2 1;
#X connect 15 0 5 0;
#X connect 15 1 6 1;
#X connect 17 0 16 0;
#X connect 18 0 15 0;
#X connect 22 0 17 0;
#X connect 22 1 17 1;
#X coords 0 -1 1 1 176 162 2 20 20;
