#N canvas 0 215 1920 942 12;
#X obj 5 193 reverb, f 8;
#X obj 5 163 tremolo, f 8;
#X obj 5 253 dac~, f 8;
#X obj 264 71 loadbang;
#X obj 5 5 cnv 15 594 54 empty empty empty 10 20 0 24 #fcc4c4 #000000
0;
#X obj 5 103 afinador;
#X obj 5 133 consola, f 8;
#X obj 5 223 salida, f 8;
#X obj 80 133 temperamentos;
#N canvas 76 48 1920 942 atajos 0;
#X obj 98 19 keyname;
#X symbolatom 144 49 15 0 0 0 - - - 0;
#X floatatom 98 49 5 0 0 0 - - - 0;
#X obj 98 79 spigot;
#X obj 20 19 key;
#X floatatom 20 53 5 0 0 0 - - - 0;
#N canvas 1028 205 1920 942 fundamentales 0;
#X obj 45 12 inlet;
#X obj 140 70 outlet;
#X obj 45 100 - 1;
#X floatatom 45 138 5 0 0 0 - - - 0;
#X obj 45 70 f;
#X obj 92 100 + 1;
#X obj 92 69 f;
#X obj 105 237 s r_root;
#X obj 45 40 sel Left Right;
#X msg 75 209 -1;
#X msg 24 209 12;
#X obj 45 174 sel -1 12;
#X obj 117 15 r s_root;
#X connect 0 0 8 0;
#X connect 2 0 3 0;
#X connect 3 0 11 0;
#X connect 4 0 2 0;
#X connect 5 0 3 0;
#X connect 6 0 5 0;
#X connect 8 0 4 0;
#X connect 8 1 6 0;
#X connect 8 2 1 0;
#X connect 9 0 6 0;
#X connect 10 0 4 0;
#X connect 11 0 10 0;
#X connect 11 1 9 0;
#X connect 11 2 7 0;
#X connect 11 2 4 1;
#X connect 11 2 6 1;
#X connect 12 0 4 1;
#X connect 12 0 6 1;
#X restore 98 104 pd fundamentales;
#N canvas 721 185 1920 942 temperamentos 0;
#X obj 27 6 inlet;
#X obj 101 118 outlet;
#X obj 27 81 sel Up Down;
#X obj 71 6 r s_temp-sel;
#X floatatom 71 38 5 0 0 0 - - - 0;
#X obj 27 118 f;
#X obj 64 118 f;
#X obj 27 155 - 1;
#X floatatom 27 193 5 0 0 0 - - - 0;
#X obj 64 155 + 1;
#X msg 57 264 -1;
#X obj 27 229 sel -1 11;
#X msg 8 264 11;
#X obj 87 264 s r_temp-sel;
#X connect 0 0 2 0;
#X connect 2 0 5 0;
#X connect 2 1 6 0;
#X connect 2 2 1 0;
#X connect 3 0 4 0;
#X connect 4 0 5 1;
#X connect 4 0 6 1;
#X connect 5 0 7 0;
#X connect 6 0 9 0;
#X connect 7 0 8 0;
#X connect 8 0 11 0;
#X connect 9 0 8 0;
#X connect 10 0 6 0;
#X connect 11 0 12 0;
#X connect 11 1 10 0;
#X connect 11 2 13 0;
#X connect 12 0 5 0;
#X restore 98 129 pd temperamentos;
#N canvas 836 366 91 176 panic 0;
#X obj 12 6 inlet;
#X msg 11 57 bang;
#X obj 11 82 s r_panic;
#X obj 11 32 sel 27;
#X obj 11 107 outlet;
#X connect 0 0 3 0;
#X connect 1 0 2 0;
#X connect 3 0 1 0;
#X connect 3 1 4 0;
#X restore 20 87 pd panic;
#N canvas 522 49 1920 942 registros 0;
#X obj 18 81 s r_principal16;
#X obj 42 106 s r_principal8;
#X obj 66 131 s r_bordon16;
#X obj 92 156 s r_flauta8;
#X obj 115 181 s r_flauta4;
#X obj 212 106 s r_scharf6h;
#X obj 236 131 s r_celeste8;
#X obj 139 206 s r_ottava4;
#X obj 260 156 s r_reg1;
#X obj 284 181 s r_reg0;
#X obj 18 51 sel F1 F2 F3 F4 F5 F6 F7 F8 F9 F10 F11 F12;
#X obj 163 231 s r_oboe;
#X obj 187 81 s r_viola8;
#X obj 18 15 inlet;
#X obj 309 261 outlet;
#X text 62 15 Registros;
#X connect 10 0 0 0;
#X connect 10 1 1 0;
#X connect 10 2 2 0;
#X connect 10 3 3 0;
#X connect 10 4 4 0;
#X connect 10 5 7 0;
#X connect 10 6 11 0;
#X connect 10 7 12 0;
#X connect 10 8 5 0;
#X connect 10 9 6 0;
#X connect 10 10 8 0;
#X connect 10 11 9 0;
#X connect 10 12 14 0;
#X connect 13 0 10 0;
#X restore 98 155 pd registros;
#N canvas 142 25 1920 942 diapason 0;
#X obj 37 9 inlet;
#X obj 37 35 sel [ ];
#X obj 99 73 outlet;
#X obj 13 104 - 1;
#X floatatom 13 142 5 0 0 0 - - - 0;
#X obj 13 74 f;
#X obj 60 104 + 1;
#X obj 60 73 f;
#X obj 87 213 s r_diapason;
#X obj 13 178 sel 399 461;
#X msg 50 213 399;
#X msg 5 213 461;
#X floatatom 98 34 5 0 0 0 - - - 0;
#X obj 98 9 r s_diapason;
#X connect 0 0 1 0;
#X connect 1 0 5 0;
#X connect 1 1 7 0;
#X connect 1 2 2 0;
#X connect 3 0 4 0;
#X connect 4 0 9 0;
#X connect 5 0 3 0;
#X connect 6 0 4 0;
#X connect 7 0 6 0;
#X connect 9 0 11 0;
#X connect 9 1 10 0;
#X connect 9 2 5 1;
#X connect 9 2 7 1;
#X connect 9 2 8 0;
#X connect 10 0 7 0;
#X connect 11 0 5 0;
#X connect 12 0 5 1;
#X connect 12 0 7 1;
#X connect 13 0 12 0;
#X restore 98 181 pd diapason;
#X connect 0 0 2 0;
#X connect 0 1 1 0;
#X connect 1 0 3 0;
#X connect 2 0 3 1;
#X connect 3 0 6 0;
#X connect 4 0 5 0;
#X connect 5 0 8 0;
#X connect 6 0 7 0;
#X connect 7 0 9 0;
#X connect 9 0 10 0;
#X restore 80 223 pd atajos de teclado;
#N canvas 628 286 148 232 seleccion 0;
#X obj 20 10 r s_diapasel;
#X obj 20 50 sel 0 1 2;
#X msg 5 90 415;
#X msg 37 90 432;
#X msg 70 90 440;
#X obj 37 130 s r_diapason;
#X obj 5 158 s diapason-ini;
#X connect 0 0 1 0;
#X connect 1 0 2 0;
#X connect 1 1 3 0;
#X connect 1 2 4 0;
#X connect 2 0 5 0;
#X connect 2 0 6 0;
#X connect 3 0 5 0;
#X connect 3 0 6 0;
#X connect 4 0 5 0;
#X connect 4 0 6 0;
#X restore 80 193 pd seleccion de diapason;
#N canvas 0 25 237 218 controles 0;
#X obj 126 80 ctlin 1;
#X floatatom 126 102 5 0 0 0 - - - 0;
#X obj 126 148 s r_lfo;
#X text 123 60 LFO;
#X text 18 62 volumen;
#X obj 19 83 ctlin 7;
#X floatatom 19 105 5 0 0 0 - - - 0;
#X obj 19 149 s r_vol;
#N canvas 0 25 554 371 tubos 0;
#X floatatom 13 200 5 0 0 0 - - - 0;
#N canvas 735 1176 100 159 mtor 0;
#X obj 15 10 inlet;
#X obj 15 33 * 100;
#X obj 15 56 / 127;
#X obj 15 79 - 40;
#X floatatom 15 102 5 0 0 0 - - - 0;
#X obj 15 124 outlet;
#X connect 0 0 1 0;
#X connect 1 0 2 0;
#X connect 2 0 3 0;
#X connect 3 0 4 0;
#X connect 4 0 5 0;
#X restore 13 223 pd mtor;
#X floatatom 140 200 5 0 0 0 - - - 0;
#N canvas 735 1176 100 159 mtor 0;
#X obj 15 10 inlet;
#X obj 15 33 * 100;
#X obj 15 56 / 127;
#X obj 15 79 - 40;
#X floatatom 15 102 5 0 0 0 - - - 0;
#X obj 15 124 outlet;
#X connect 0 0 1 0;
#X connect 1 0 2 0;
#X connect 2 0 3 0;
#X connect 3 0 4 0;
#X connect 4 0 5 0;
#X restore 140 223 pd mtor;
#X floatatom 77 200 5 0 0 0 - - - 0;
#N canvas 735 1176 100 159 mtor 0;
#X obj 15 10 inlet;
#X obj 15 33 * 100;
#X obj 15 56 / 127;
#X obj 15 79 - 40;
#X floatatom 15 102 5 0 0 0 - - - 0;
#X obj 15 124 outlet;
#X connect 0 0 1 0;
#X connect 1 0 2 0;
#X connect 2 0 3 0;
#X connect 3 0 4 0;
#X connect 4 0 5 0;
#X restore 77 223 pd mtor;
#X floatatom 204 200 5 0 0 0 - - - 0;
#N canvas 735 1176 100 159 mtor 0;
#X obj 15 10 inlet;
#X obj 15 33 * 100;
#X obj 15 56 / 127;
#X obj 15 79 - 40;
#X floatatom 15 102 5 0 0 0 - - - 0;
#X obj 15 124 outlet;
#X connect 0 0 1 0;
#X connect 1 0 2 0;
#X connect 2 0 3 0;
#X connect 3 0 4 0;
#X connect 4 0 5 0;
#X restore 204 223 pd mtor;
#X floatatom 269 200 5 0 0 0 - - - 0;
#N canvas 735 1176 100 159 mtor 0;
#X obj 15 10 inlet;
#X obj 15 33 * 100;
#X obj 15 56 / 127;
#X obj 15 79 - 40;
#X floatatom 15 102 5 0 0 0 - - - 0;
#X obj 15 124 outlet;
#X connect 0 0 1 0;
#X connect 1 0 2 0;
#X connect 2 0 3 0;
#X connect 3 0 4 0;
#X connect 4 0 5 0;
#X restore 269 223 pd mtor;
#X floatatom 333 200 5 0 0 0 - - - 0;
#N canvas 735 1176 100 159 mtor 0;
#X obj 15 10 inlet;
#X obj 15 33 * 100;
#X obj 15 56 / 127;
#X obj 15 79 - 40;
#X floatatom 15 102 5 0 0 0 - - - 0;
#X obj 15 124 outlet;
#X connect 0 0 1 0;
#X connect 1 0 2 0;
#X connect 2 0 3 0;
#X connect 3 0 4 0;
#X connect 4 0 5 0;
#X restore 333 223 pd mtor;
#X obj 333 176 ctlin 5;
#X floatatom 398 200 5 0 0 0 - - - 0;
#N canvas 735 1176 100 159 mtor 0;
#X obj 15 10 inlet;
#X obj 15 33 * 100;
#X obj 15 56 / 127;
#X obj 15 79 - 40;
#X floatatom 15 102 5 0 0 0 - - - 0;
#X obj 15 124 outlet;
#X connect 0 0 1 0;
#X connect 1 0 2 0;
#X connect 2 0 3 0;
#X connect 3 0 4 0;
#X connect 4 0 5 0;
#X restore 398 223 pd mtor;
#X floatatom 462 200 5 0 0 0 - - - 0;
#N canvas 735 1176 100 159 mtor 0;
#X obj 15 10 inlet;
#X obj 15 33 * 100;
#X obj 15 56 / 127;
#X obj 15 79 - 40;
#X floatatom 15 102 5 0 0 0 - - - 0;
#X obj 15 124 outlet;
#X connect 0 0 1 0;
#X connect 1 0 2 0;
#X connect 2 0 3 0;
#X connect 3 0 4 0;
#X connect 4 0 5 0;
#X restore 462 223 pd mtor;
#X floatatom 399 57 5 0 0 0 - - - 0;
#N canvas 735 1176 100 159 mtor 0;
#X obj 15 10 inlet;
#X obj 15 33 * 100;
#X obj 15 56 / 127;
#X obj 15 79 - 40;
#X floatatom 15 102 5 0 0 0 - - - 0;
#X obj 15 124 outlet;
#X connect 0 0 1 0;
#X connect 1 0 2 0;
#X connect 2 0 3 0;
#X connect 3 0 4 0;
#X connect 4 0 5 0;
#X restore 399 79 pd mtor;
#X text 15 2 Tubos;
#X obj 13 176 ctlin 0;
#X obj 204 176 ctlin 3;
#X obj 269 176 ctlin 4;
#X obj 398 176 ctlin 6;
#X floatatom 143 57 5 0 0 0 - - - 0;
#N canvas 735 1176 100 159 mtor 0;
#X obj 15 10 inlet;
#X obj 15 33 * 100;
#X obj 15 56 / 127;
#X obj 15 79 - 40;
#X floatatom 15 102 5 0 0 0 - - - 0;
#X obj 15 124 outlet;
#X connect 0 0 1 0;
#X connect 1 0 2 0;
#X connect 2 0 3 0;
#X connect 3 0 4 0;
#X connect 4 0 5 0;
#X restore 143 79 pd mtor;
#X floatatom 463 57 5 0 0 0 - - - 0;
#N canvas 735 1176 100 159 mtor 0;
#X obj 15 10 inlet;
#X obj 15 33 * 100;
#X obj 15 56 / 127;
#X obj 15 79 - 40;
#X floatatom 15 102 5 0 0 0 - - - 0;
#X obj 15 124 outlet;
#X connect 0 0 1 0;
#X connect 1 0 2 0;
#X connect 2 0 3 0;
#X connect 3 0 4 0;
#X connect 4 0 5 0;
#X restore 463 79 pd mtor;
#X floatatom 335 57 5 0 0 0 - - - 0;
#N canvas 735 1176 100 159 mtor 0;
#X obj 15 10 inlet;
#X obj 15 33 * 100;
#X obj 15 56 / 127;
#X obj 15 79 - 40;
#X floatatom 15 102 5 0 0 0 - - - 0;
#X obj 15 124 outlet;
#X connect 0 0 1 0;
#X connect 1 0 2 0;
#X connect 2 0 3 0;
#X connect 3 0 4 0;
#X connect 4 0 5 0;
#X restore 335 79 pd mtor;
#X obj 335 34 ctlin 21;
#X floatatom 271 57 5 0 0 0 - - - 0;
#N canvas 735 1176 100 159 mtor 0;
#X obj 15 10 inlet;
#X obj 15 33 * 100;
#X obj 15 56 / 127;
#X obj 15 79 - 40;
#X floatatom 15 102 5 0 0 0 - - - 0;
#X obj 15 124 outlet;
#X connect 0 0 1 0;
#X connect 1 0 2 0;
#X connect 2 0 3 0;
#X connect 3 0 4 0;
#X connect 4 0 5 0;
#X restore 271 79 pd mtor;
#X floatatom 207 57 5 0 0 0 - - - 0;
#N canvas 735 1176 100 159 mtor 0;
#X obj 15 10 inlet;
#X obj 15 33 * 100;
#X obj 15 56 / 127;
#X obj 15 79 - 40;
#X floatatom 15 102 5 0 0 0 - - - 0;
#X obj 15 124 outlet;
#X connect 0 0 1 0;
#X connect 1 0 2 0;
#X connect 2 0 3 0;
#X connect 3 0 4 0;
#X connect 4 0 5 0;
#X restore 207 79 pd mtor;
#X obj 271 34 ctlin 20;
#X obj 207 34 ctlin 19;
#X obj 399 34 ctlin 22;
#X obj 463 34 ctlin 23;
#X floatatom 15 57 5 0 0 0 - - - 0;
#N canvas 1100 117 371 424 mtor 0;
#X obj 15 10 inlet;
#X obj 15 33 * 100;
#X obj 15 56 / 127;
#X obj 15 79 - 40;
#X floatatom 15 102 5 0 0 0 - - - 0;
#X obj 15 124 outlet;
#X connect 0 0 1 0;
#X connect 1 0 2 0;
#X connect 2 0 3 0;
#X connect 3 0 4 0;
#X connect 4 0 5 0;
#X restore 15 79 pd mtor;
#X obj 15 34 ctlin 16;
#X floatatom 79 57 5 0 0 0 - - - 0;
#N canvas 735 1176 100 159 mtor 0;
#X obj 15 10 inlet;
#X obj 15 33 * 100;
#X obj 15 56 / 127;
#X obj 15 79 - 40;
#X floatatom 15 102 5 0 0 0 - - - 0;
#X obj 15 124 outlet;
#X connect 0 0 1 0;
#X connect 1 0 2 0;
#X connect 2 0 3 0;
#X connect 3 0 4 0;
#X connect 4 0 5 0;
#X restore 79 79 pd mtor;
#X obj 140 176 ctlin 2;
#X obj 143 34 ctlin 18;
#X obj 79 34 ctlin 17;
#X obj 77 176 ctlin 8;
#X obj 462 176 ctlin 9;
#X floatatom 13 247 5 0 0 0 - - - 0;
#X floatatom 77 247 5 0 0 0 - - - 0;
#X floatatom 140 247 5 0 0 0 - - - 0;
#X floatatom 204 247 5 0 0 0 - - - 0;
#X floatatom 269 247 5 0 0 0 - - - 0;
#X floatatom 333 247 5 0 0 0 - - - 0;
#X floatatom 398 247 5 0 0 0 - - - 0;
#X floatatom 462 247 5 0 0 0 - - - 0;
#X floatatom 15 102 5 0 0 0 - - - 0;
#X floatatom 79 102 5 0 0 0 - - - 0;
#X floatatom 143 102 5 0 0 0 - - - 0;
#X floatatom 207 102 5 0 0 0 - - - 0;
#X floatatom 271 102 5 0 0 0 - - - 0;
#X floatatom 335 102 5 0 0 0 - - - 0;
#X floatatom 399 102 5 0 0 0 - - - 0;
#X floatatom 463 102 5 0 0 0 - - - 0;
#X obj 13 270 s r_s1;
#X obj 77 270 s r_s2;
#X obj 140 270 s r_s3;
#X obj 204 270 s r_s5;
#X obj 269 270 s r_s6;
#X obj 333 270 s r_s7;
#X obj 398 270 s r_s10;
#X obj 462 270 s r_s13;
#X obj 15 124 s r_s11;
#X obj 79 124 s r_s4;
#X obj 143 124 s r_s15;
#X obj 207 124 s r_s16;
#X obj 271 124 s r_s9;
#X obj 335 124 s r_s8;
#X obj 399 124 s r_s12;
#X obj 463 124 s r_s14;
#X connect 0 0 1 0;
#X connect 1 0 49 0;
#X connect 2 0 3 0;
#X connect 3 0 51 0;
#X connect 4 0 5 0;
#X connect 5 0 50 0;
#X connect 6 0 7 0;
#X connect 7 0 52 0;
#X connect 8 0 9 0;
#X connect 9 0 53 0;
#X connect 10 0 11 0;
#X connect 11 0 54 0;
#X connect 12 0 10 0;
#X connect 13 0 14 0;
#X connect 14 0 55 0;
#X connect 15 0 16 0;
#X connect 16 0 56 0;
#X connect 17 0 18 0;
#X connect 18 0 63 0;
#X connect 20 0 0 0;
#X connect 21 0 6 0;
#X connect 22 0 8 0;
#X connect 23 0 13 0;
#X connect 24 0 25 0;
#X connect 25 0 59 0;
#X connect 26 0 27 0;
#X connect 27 0 64 0;
#X connect 28 0 29 0;
#X connect 29 0 62 0;
#X connect 30 0 28 0;
#X connect 31 0 32 0;
#X connect 32 0 61 0;
#X connect 33 0 34 0;
#X connect 34 0 60 0;
#X connect 35 0 31 0;
#X connect 36 0 33 0;
#X connect 37 0 17 0;
#X connect 38 0 26 0;
#X connect 39 0 40 0;
#X connect 40 0 57 0;
#X connect 41 0 39 0;
#X connect 42 0 43 0;
#X connect 43 0 58 0;
#X connect 44 0 2 0;
#X connect 45 0 24 0;
#X connect 46 0 42 0;
#X connect 47 0 4 0;
#X connect 48 0 15 0;
#X connect 49 0 65 0;
#X connect 50 0 66 0;
#X connect 51 0 67 0;
#X connect 52 0 68 0;
#X connect 53 0 69 0;
#X connect 54 0 70 0;
#X connect 55 0 71 0;
#X connect 56 0 72 0;
#X connect 57 0 73 0;
#X connect 58 0 74 0;
#X connect 59 0 75 0;
#X connect 60 0 76 0;
#X connect 61 0 77 0;
#X connect 62 0 78 0;
#X connect 63 0 79 0;
#X connect 64 0 80 0;
#X restore 21 16 pd tubos;
#X obj 126 124 / 127;
#X obj 19 127 / 127;
#N canvas 0 25 521 641 rogistros 0;
#X msg 169 329 0;
#X msg 19 329 1;
#X obj 169 299 r s_reg0;
#X obj 19 299 r s_reg1;
#X msg 49 329 0;
#X obj 19 59 s r_principal16;
#X obj 119 59 s r_flauta8;
#X obj 19 119 s r_principal8;
#X obj 119 119 s r_flauta4;
#X obj 19 179 s r_bordon16;
#X obj 19 29 ctlin 32;
#X obj 119 29 ctlin 33;
#X obj 19 89 ctlin 48;
#X obj 119 89 ctlin 49;
#X obj 19 149 ctlin 64;
#X obj 119 149 ctlin 65;
#X obj 24 402 r s_principal16;
#X obj 24 462 r s_principal8;
#X obj 24 522 r s_bordon16;
#X obj 134 402 r s_flauta8;
#X obj 134 462 r s_flauta4;
#X obj 134 522 r s_ottava4;
#X obj 119 179 s r_ottava4;
#X obj 205 177 s r_scharf6h;
#X obj 311 58 s r_celeste8;
#X obj 228 521 r s_scharf6h;
#X obj 339 396 r s_celeste8;
#X obj 433 306 sel 127 0;
#X obj 433 281 ctlin 46;
#X obj 433 331 s r_reg0;
#X obj 323 306 sel 127 0;
#X obj 323 281 ctlin 58;
#X obj 323 331 s r_reg1;
#X text 18 5 registros;
#X obj 24 432 ctlout 32 17;
#X obj 24 492 ctlout 48 17;
#X obj 24 552 ctlout 64 17;
#X obj 134 432 ctlout 33 17;
#X obj 134 492 ctlout 49 17;
#X obj 134 552 ctlout 65 17;
#X obj 230 400 r s_oboe;
#X obj 230 433 ctlout 34 17;
#X obj 207 30 ctlin 34;
#X obj 208 58 s r_oboe;
#X obj 311 28 ctlin 35;
#X obj 205 147 ctlin 66;
#X obj 208 90 ctlin 50;
#X obj 208 120 s r_viola8;
#X obj 228 551 ctlout 66 17;
#X obj 339 426 ctlout 35 17;
#X obj 231 462 r s_viola8;
#X obj 231 492 ctlout 50 17;
#X connect 0 0 5 0;
#X connect 0 0 7 0;
#X connect 0 0 9 0;
#X connect 0 0 6 0;
#X connect 0 0 8 0;
#X connect 0 0 22 0;
#X connect 0 0 23 0;
#X connect 0 0 24 0;
#X connect 0 0 43 0;
#X connect 0 0 47 0;
#X connect 1 0 5 0;
#X connect 1 0 7 0;
#X connect 1 0 9 0;
#X connect 1 0 6 0;
#X connect 1 0 8 0;
#X connect 1 0 22 0;
#X connect 1 0 43 0;
#X connect 1 0 47 0;
#X connect 2 0 0 0;
#X connect 3 0 1 0;
#X connect 3 0 4 0;
#X connect 4 0 24 0;
#X connect 4 0 23 0;
#X connect 10 0 5 0;
#X connect 11 0 6 0;
#X connect 12 0 7 0;
#X connect 13 0 8 0;
#X connect 14 0 9 0;
#X connect 15 0 22 0;
#X connect 16 0 34 0;
#X connect 17 0 35 0;
#X connect 18 0 36 0;
#X connect 19 0 37 0;
#X connect 20 0 38 0;
#X connect 21 0 39 0;
#X connect 25 0 48 0;
#X connect 26 0 49 0;
#X connect 27 0 29 0;
#X connect 28 0 27 0;
#X connect 30 0 32 0;
#X connect 31 0 30 0;
#X connect 40 0 41 0;
#X connect 42 0 43 0;
#X connect 44 0 24 0;
#X connect 45 0 23 0;
#X connect 46 0 47 0;
#X connect 50 0 51 0;
#X restore 123 13 pd rogistros;
#X connect 0 0 1 0;
#X connect 1 0 9 0;
#X connect 5 0 6 0;
#X connect 6 0 10 0;
#X connect 9 0 2 0;
#X connect 10 0 7 0;
#X restore 80 253 pd controles MIDI;
#X obj 80 103 registros;
#X text 274 22 Op. 1;
#X text 247 38 Pablo Herrera;
#X text 210 6 Órgano Tubular Afinable;
#N canvas 246 118 1920 942 consola 0;
#X obj 22 363 s r_s1;
#X obj 22 316 unpack f f f f f f f f f f f f f f f f;
#X obj 39 389 s r_s2;
#X obj 57 419 s r_s3;
#X obj 74 446 s r_s4;
#X obj 92 362 s r_s5;
#X obj 109 389 s r_s6;
#X obj 127 418 s r_s7;
#X obj 144 445 s r_s8;
#X obj 162 363 s r_s9;
#X obj 179 390 s r_s10;
#X obj 197 419 s r_s11;
#X obj 214 446 s r_s12;
#X obj 232 362 s r_s13;
#X obj 249 389 s r_s14;
#X obj 267 418 s r_s15;
#X obj 285 445 s r_s16;
#X obj 22 286 r r_consola;
#X obj 23 18 r s_s1;
#X obj 40 46 r s_s2;
#X obj 57 75 r s_s3;
#X obj 74 101 r s_s4;
#X obj 92 18 r s_s5;
#X obj 108 46 r s_s6;
#X obj 125 75 r s_s7;
#X obj 142 101 r s_s8;
#X obj 159 18 r s_s9;
#X obj 176 46 r s_s10;
#X obj 193 75 r s_s11;
#X obj 210 101 r s_s12;
#X obj 227 18 r s_s13;
#X obj 244 46 r s_s14;
#X obj 261 75 r s_s15;
#X obj 279 101 r s_s16;
#X obj 25 153 s c1;
#X obj 42 179 s c2;
#X obj 60 209 s c3;
#X obj 77 236 s c4;
#X obj 95 152 s c5;
#X obj 112 179 s c6;
#X obj 130 208 s c7;
#X obj 147 235 s c8;
#X obj 165 153 s c9;
#X obj 182 180 s c10;
#X obj 200 209 s c11;
#X obj 217 236 s c12;
#X obj 235 152 s c13;
#X obj 252 179 s c14;
#X obj 270 208 s c15;
#X obj 288 235 s c16;
#X connect 1 0 0 0;
#X connect 1 1 2 0;
#X connect 1 2 3 0;
#X connect 1 3 4 0;
#X connect 1 4 5 0;
#X connect 1 5 6 0;
#X connect 1 6 7 0;
#X connect 1 7 8 0;
#X connect 1 8 9 0;
#X connect 1 9 10 0;
#X connect 1 10 11 0;
#X connect 1 11 12 0;
#X connect 1 12 13 0;
#X connect 1 13 14 0;
#X connect 1 14 15 0;
#X connect 1 15 16 0;
#X connect 17 0 1 0;
#X connect 18 0 34 0;
#X connect 19 0 35 0;
#X connect 20 0 36 0;
#X connect 21 0 37 0;
#X connect 22 0 38 0;
#X connect 23 0 39 0;
#X connect 24 0 40 0;
#X connect 25 0 41 0;
#X connect 26 0 42 0;
#X connect 27 0 43 0;
#X connect 28 0 44 0;
#X connect 29 0 45 0;
#X connect 30 0 46 0;
#X connect 31 0 47 0;
#X connect 32 0 48 0;
#X connect 33 0 49 0;
#X restore 80 163 pd consola;
#X text 14 21 Basado en un órgano de;
#X text 43 37 Nicola Simoni;
#X text 417 23 Registros diseñados por;
#X text 412 37 Oscar Rodríguez Castillo;
#X obj 5 69 notein;
#X msg 267 103 \; pd dsp 1 \; r_vol 1 \; r_diapasel 2 \; r_temp-sel
4 \; r_root 0 \; r_principal8 1 \; r_ottava4 1 \; r_desvio 36 \; r_room
90 \; r_damping 20 \; r_wet 90 \; r_dry 110 \;;
#X connect 0 0 7 0;
#X connect 0 1 7 1;
#X connect 1 0 0 0;
#X connect 3 0 22 0;
#X connect 5 0 6 0;
#X connect 6 0 1 0;
#X connect 7 0 2 0;
#X connect 7 1 2 1;
#X connect 21 0 5 0;
#X connect 21 1 6 1;
#X coords 0 -1 1 1 594 54 2 5 5;
