#N canvas 115 143 1620 804 12;
#X obj 203 667 mixturas, f 19;
#X obj 356 668 mixturas, f 19;
#X obj 512 669 mixturas, f 18;
#X obj 660 671 mixturas, f 21;
#X obj 823 670 mixturas, f 23;
#X obj 1004 670 mixturas, f 24;
#X obj 1187 666 mixturas, f 23;
#X obj 1367 663 mixturas, f 12;
#X obj 214 64 mixturas, f 22;
#X obj 380 70 mixturas, f 20;
#X obj 532 71 mixturas, f 20;
#X obj 684 69 mixturas, f 21;
#X obj 841 69 mixturas, f 22;
#X obj 1009 68 mixturas, f 23;
#X obj 1186 69 mixturas, f 25;
#X obj 1376 66 mixturas, f 16;
#N canvas 454 1119 626 310 flauta_4 0;
#X floatatom 12 -24 5 0 0 0 - - -;
#X obj 12 6 sel 0 1;
#X obj 12 96 unpack f f f f f f f f f f f f f f f f;
#X obj 12 126 outlet;
#X obj 29 156 outlet;
#X obj 47 186 outlet;
#X obj 64 216 outlet;
#X obj 82 126 outlet;
#X obj 99 156 outlet;
#X obj 117 186 outlet;
#X obj 134 216 outlet;
#X obj 152 126 outlet;
#X obj 169 156 outlet;
#X obj 187 186 outlet;
#X obj 204 216 outlet;
#X obj 222 126 outlet;
#X obj 239 156 outlet;
#X obj 257 186 outlet;
#X obj 275 216 outlet;
#X obj 12 -54 r s_flauta4;
#X msg 12 66 -100 -100 -100 -100 -100 -100 -100 -100 -100 -100 -100
-100 -100 -100 -100 -100, f 79;
#X msg 35 36 -100 -100 -100 -100 40 -100 -100 -100 -100 -100 -100 -100
-100 -100 -100 -100, f 79;
#X connect 0 0 1 0;
#X connect 1 0 20 0;
#X connect 1 1 21 0;
#X connect 2 0 3 0;
#X connect 2 1 4 0;
#X connect 2 2 5 0;
#X connect 2 3 6 0;
#X connect 2 4 7 0;
#X connect 2 5 8 0;
#X connect 2 6 9 0;
#X connect 2 7 10 0;
#X connect 2 8 11 0;
#X connect 2 9 12 0;
#X connect 2 10 13 0;
#X connect 2 11 14 0;
#X connect 2 12 15 0;
#X connect 2 13 16 0;
#X connect 2 14 17 0;
#X connect 2 15 18 0;
#X connect 19 0 0 0;
#X connect 20 0 2 0;
#X connect 21 0 2 0;
#X restore 40 340 pd flauta_4;
#N canvas 454 1067 626 310 flauta_8 0;
#X floatatom 12 -24 5 0 0 0 - - -;
#X obj 12 6 sel 0 1;
#X obj 12 96 unpack f f f f f f f f f f f f f f f f;
#X obj 12 126 outlet;
#X obj 29 156 outlet;
#X obj 47 186 outlet;
#X obj 64 216 outlet;
#X obj 82 126 outlet;
#X obj 99 156 outlet;
#X obj 117 186 outlet;
#X obj 134 216 outlet;
#X obj 152 126 outlet;
#X obj 169 156 outlet;
#X obj 187 186 outlet;
#X obj 204 216 outlet;
#X obj 222 126 outlet;
#X obj 239 156 outlet;
#X obj 257 186 outlet;
#X obj 275 216 outlet;
#X obj 12 -54 r s_flauta8;
#X msg 12 66 -100 -100 -100 -100 -100 -100 -100 -100 -100 -100 -100
-100 -100 -100 -100 -100, f 79;
#X msg 35 36 -100 -100 40 -100 -100 -100 -100 -100 -100 -100 -100 -100
-100 -100 -100 -100, f 79;
#X connect 0 0 1 0;
#X connect 1 0 20 0;
#X connect 1 1 21 0;
#X connect 2 0 3 0;
#X connect 2 1 4 0;
#X connect 2 2 5 0;
#X connect 2 3 6 0;
#X connect 2 4 7 0;
#X connect 2 5 8 0;
#X connect 2 6 9 0;
#X connect 2 7 10 0;
#X connect 2 8 11 0;
#X connect 2 9 12 0;
#X connect 2 10 13 0;
#X connect 2 11 14 0;
#X connect 2 12 15 0;
#X connect 2 13 16 0;
#X connect 2 14 17 0;
#X connect 2 15 18 0;
#X connect 19 0 0 0;
#X connect 20 0 2 0;
#X connect 21 0 2 0;
#X restore 40 290 pd flauta_8;
#N canvas 469 1026 611 314 bordon_16 0;
#X floatatom 9 -24 5 0 0 0 - - -;
#X obj 9 6 sel 0 1;
#X obj 9 96 unpack f f f f f f f f f f f f f f f f;
#X obj 9 126 outlet;
#X obj 26 156 outlet;
#X obj 44 186 outlet;
#X obj 61 216 outlet;
#X obj 79 126 outlet;
#X obj 96 156 outlet;
#X obj 114 186 outlet;
#X obj 131 216 outlet;
#X obj 149 126 outlet;
#X obj 166 156 outlet;
#X obj 184 186 outlet;
#X obj 201 216 outlet;
#X obj 219 126 outlet;
#X obj 236 156 outlet;
#X obj 254 186 outlet;
#X obj 272 216 outlet;
#X obj 9 -54 r s_bordon16;
#X msg 9 66 -100 -100 -100 -100 -100 -100 -100 -100 -100 -100 -100
-100 -100 -100 -100 -100, f 79;
#X msg 32 36 1.7 -40 -100 -35.2 -100 -100 -100 -100 -100 -100 -100
-100 -100 -100 -100 -100, f 79;
#X connect 0 0 1 0;
#X connect 1 0 20 0;
#X connect 1 1 21 0;
#X connect 2 0 3 0;
#X connect 2 1 4 0;
#X connect 2 2 5 0;
#X connect 2 3 6 0;
#X connect 2 4 7 0;
#X connect 2 5 8 0;
#X connect 2 6 9 0;
#X connect 2 7 10 0;
#X connect 2 8 11 0;
#X connect 2 9 12 0;
#X connect 2 10 13 0;
#X connect 2 11 14 0;
#X connect 2 12 15 0;
#X connect 2 13 16 0;
#X connect 2 14 17 0;
#X connect 2 15 18 0;
#X connect 19 0 0 0;
#X connect 20 0 2 0;
#X connect 21 0 2 0;
#X restore 40 240 pd bordon_16;
#N canvas 465 870 615 318 principal_16 0;
#X floatatom 20 40 5 0 0 0 - - -;
#X obj 20 70 sel 0 1;
#X obj 20 160 unpack f f f f f f f f f f f f f f f f;
#X obj 20 190 outlet;
#X obj 37 220 outlet;
#X obj 55 250 outlet;
#X obj 72 280 outlet;
#X obj 90 190 outlet;
#X obj 107 220 outlet;
#X obj 125 250 outlet;
#X obj 142 280 outlet;
#X obj 160 190 outlet;
#X obj 177 220 outlet;
#X obj 195 250 outlet;
#X obj 212 280 outlet;
#X obj 230 190 outlet;
#X obj 247 220 outlet;
#X obj 265 250 outlet;
#X obj 283 280 outlet;
#X obj 20 10 r s_principal16;
#X msg 20 130 -100 -100 -100 -100 -100 -100 -100 -100 -100 -100 -100
-100 -100 -100 -100 -100, f 79;
#X msg 43 100 49 -100 -8 -100 -100 -100 -100 -100 -100 -100 -100 -100
-100 -100 -100 -100, f 79;
#X connect 0 0 1 0;
#X connect 1 0 20 0;
#X connect 1 1 21 0;
#X connect 2 0 3 0;
#X connect 2 1 4 0;
#X connect 2 2 5 0;
#X connect 2 3 6 0;
#X connect 2 4 7 0;
#X connect 2 5 8 0;
#X connect 2 6 9 0;
#X connect 2 7 10 0;
#X connect 2 8 11 0;
#X connect 2 9 12 0;
#X connect 2 10 13 0;
#X connect 2 11 14 0;
#X connect 2 12 15 0;
#X connect 2 13 16 0;
#X connect 2 14 17 0;
#X connect 2 15 18 0;
#X connect 19 0 0 0;
#X connect 20 0 2 0;
#X connect 21 0 2 0;
#X restore 40 190 pd principal_16;
#N canvas 465 870 615 402 principal_8 0;
#X obj 20 10 r s_principal8;
#X floatatom 20 100 5 0 0 0 - - -;
#X obj 20 130 sel 0 1;
#X obj 20 220 unpack f f f f f f f f f f f f f f f f;
#X obj 20 250 outlet;
#X obj 37 280 outlet;
#X obj 55 310 outlet;
#X obj 72 340 outlet;
#X obj 90 250 outlet;
#X obj 107 280 outlet;
#X obj 125 310 outlet;
#X obj 142 340 outlet;
#X obj 160 250 outlet;
#X obj 177 280 outlet;
#X obj 195 310 outlet;
#X obj 212 340 outlet;
#X obj 230 250 outlet;
#X obj 247 280 outlet;
#X obj 265 310 outlet;
#X obj 283 340 outlet;
#X obj 30 40 r pechon;
#X obj 30 70 bng 15 250 50 0 empty empty empty 17 7 0 10 -262144 -1
-1;
#X msg 20 190 -100 -100 -100 -100 -100 -100 -100 -100 -100 -100 -100
-100 -100 -100 -100 -100, f 79;
#X msg 43 160 -100 -100 58.4 -100 -14 -100 -100 -100 -100 -100 -100
-100 -100 -100 -100 -100, f 79;
#X connect 0 0 1 0;
#X connect 1 0 2 0;
#X connect 2 0 22 0;
#X connect 2 1 23 0;
#X connect 3 0 4 0;
#X connect 3 1 5 0;
#X connect 3 2 6 0;
#X connect 3 3 7 0;
#X connect 3 4 8 0;
#X connect 3 5 9 0;
#X connect 3 6 10 0;
#X connect 3 7 11 0;
#X connect 3 8 12 0;
#X connect 3 9 13 0;
#X connect 3 10 14 0;
#X connect 3 11 15 0;
#X connect 3 12 16 0;
#X connect 3 13 17 0;
#X connect 3 14 18 0;
#X connect 3 15 19 0;
#X connect 20 0 21 0;
#X connect 21 0 1 0;
#X connect 22 0 3 0;
#X connect 23 0 3 0;
#X restore 40 140 pd principal_8;
#N canvas 454 1073 626 310 scharf_6h 0;
#X floatatom 12 -24 5 0 0 0 - - -;
#X obj 12 6 sel 0 1;
#X obj 12 96 unpack f f f f f f f f f f f f f f f f;
#X obj 12 126 outlet;
#X obj 29 156 outlet;
#X obj 47 186 outlet;
#X obj 64 216 outlet;
#X obj 82 126 outlet;
#X obj 99 156 outlet;
#X obj 117 186 outlet;
#X obj 134 216 outlet;
#X obj 152 126 outlet;
#X obj 169 156 outlet;
#X obj 187 186 outlet;
#X obj 204 216 outlet;
#X obj 222 126 outlet;
#X obj 239 156 outlet;
#X obj 257 186 outlet;
#X obj 275 216 outlet;
#X obj 12 -54 r s_scharf6h;
#X msg 12 66 -100 -100 -100 -100 -100 -100 -100 -100 -100 -100 -100
-100 -100 -100 -100 -100, f 79;
#X msg 35 36 -100 -100 -23 -100 -10 0 7 -100 -30 -100 -8 -100 -100
-100 -100 -100, f 79;
#X connect 0 0 1 0;
#X connect 1 0 20 0;
#X connect 1 1 21 0;
#X connect 2 0 3 0;
#X connect 2 1 4 0;
#X connect 2 2 5 0;
#X connect 2 3 6 0;
#X connect 2 4 7 0;
#X connect 2 5 8 0;
#X connect 2 6 9 0;
#X connect 2 7 10 0;
#X connect 2 8 11 0;
#X connect 2 9 12 0;
#X connect 2 10 13 0;
#X connect 2 11 14 0;
#X connect 2 12 15 0;
#X connect 2 13 16 0;
#X connect 2 14 17 0;
#X connect 2 15 18 0;
#X connect 19 0 0 0;
#X connect 20 0 2 0;
#X connect 21 0 2 0;
#X restore 40 440 pd scharf_6h;
#N canvas 472 1111 608 323 celeste 0;
#X floatatom 10 40 5 0 0 0 - - -;
#X obj 10 70 sel 0 1;
#X obj 10 160 unpack f f f f f f f f f f f f f f f f;
#X obj 10 190 outlet;
#X obj 27 220 outlet;
#X obj 45 250 outlet;
#X obj 62 280 outlet;
#X obj 80 190 outlet;
#X obj 97 220 outlet;
#X obj 115 250 outlet;
#X obj 132 280 outlet;
#X obj 150 190 outlet;
#X obj 167 220 outlet;
#X obj 185 250 outlet;
#X obj 202 280 outlet;
#X obj 220 190 outlet;
#X obj 237 220 outlet;
#X obj 255 250 outlet;
#X obj 273 280 outlet;
#X obj 10 10 r s_celeste8;
#X msg 10 130 -100 -100 -100 -100 -100 -100 -100 -100 -100 -100 -100
-100 -100 -100 -100 -100, f 79;
#X msg 33 100 -100 -100 60 -100 -37 -100 -100 -100 -100 -100 -100 -100
-100 -100 60 -37, f 79;
#X connect 0 0 1 0;
#X connect 1 0 20 0;
#X connect 1 1 21 0;
#X connect 2 0 3 0;
#X connect 2 1 4 0;
#X connect 2 2 5 0;
#X connect 2 3 6 0;
#X connect 2 4 7 0;
#X connect 2 5 8 0;
#X connect 2 6 9 0;
#X connect 2 7 10 0;
#X connect 2 8 11 0;
#X connect 2 9 12 0;
#X connect 2 10 13 0;
#X connect 2 11 14 0;
#X connect 2 12 15 0;
#X connect 2 13 16 0;
#X connect 2 14 17 0;
#X connect 2 15 18 0;
#X connect 19 0 0 0;
#X connect 20 0 2 0;
#X connect 21 0 2 0;
#X restore 40 490 pd celeste;
#N canvas 472 1164 608 323 ottava4 0;
#X floatatom 10 40 5 0 0 0 - - -;
#X obj 10 70 sel 0 1;
#X obj 10 160 unpack f f f f f f f f f f f f f f f f;
#X obj 10 190 outlet;
#X obj 27 220 outlet;
#X obj 45 250 outlet;
#X obj 62 280 outlet;
#X obj 80 190 outlet;
#X obj 97 220 outlet;
#X obj 115 250 outlet;
#X obj 132 280 outlet;
#X obj 150 190 outlet;
#X obj 167 220 outlet;
#X obj 185 250 outlet;
#X obj 202 280 outlet;
#X obj 220 190 outlet;
#X obj 237 220 outlet;
#X obj 255 250 outlet;
#X obj 273 280 outlet;
#X obj 10 10 r s_ottava4;
#X msg 10 130 -100 -100 -100 -100 -100 -100 -100 -100 -100 -100 -100
-100 -100 -100 -100 -100, f 79;
#X msg 33 100 -100 -100 -100 -36 60 -100 -32.1 -100 -100 -100 -100
-100 -100 -100 -100 -100, f 79;
#X connect 0 0 1 0;
#X connect 1 0 20 0;
#X connect 1 1 21 0;
#X connect 2 0 3 0;
#X connect 2 1 4 0;
#X connect 2 2 5 0;
#X connect 2 3 6 0;
#X connect 2 4 7 0;
#X connect 2 5 8 0;
#X connect 2 6 9 0;
#X connect 2 7 10 0;
#X connect 2 8 11 0;
#X connect 2 9 12 0;
#X connect 2 10 13 0;
#X connect 2 11 14 0;
#X connect 2 12 15 0;
#X connect 2 13 16 0;
#X connect 2 14 17 0;
#X connect 2 15 18 0;
#X connect 19 0 0 0;
#X connect 20 0 2 0;
#X connect 21 0 2 0;
#X restore 40 390 pd ottava4;
#X obj 1101 331 pack f f f f f f f f f f f f f f f f;
#X obj 1102 365 s r_consola;
#N canvas 472 1111 608 323 oboe8 0;
#X floatatom 10 40 5 0 0 0 - - -;
#X obj 10 70 sel 0 1;
#X obj 10 160 unpack f f f f f f f f f f f f f f f f;
#X obj 10 190 outlet;
#X obj 27 220 outlet;
#X obj 45 250 outlet;
#X obj 62 280 outlet;
#X obj 80 190 outlet;
#X obj 97 220 outlet;
#X obj 115 250 outlet;
#X obj 132 280 outlet;
#X obj 150 190 outlet;
#X obj 167 220 outlet;
#X obj 185 250 outlet;
#X obj 202 280 outlet;
#X obj 220 190 outlet;
#X obj 237 220 outlet;
#X obj 255 250 outlet;
#X obj 273 280 outlet;
#X msg 10 130 -100 -100 -100 -100 -100 -100 -100 -100 -100 -100 -100
-100 -100 -100 -100 -100, f 79;
#X obj 10 10 r s_oboe;
#X msg 33 100 -100 -100 -15 -100 0 15 -100 -100 -100 -100 -100 -100
-100 -100 -100 -100, f 79;
#X connect 0 0 1 0;
#X connect 1 0 19 0;
#X connect 1 1 21 0;
#X connect 2 0 3 0;
#X connect 2 1 4 0;
#X connect 2 2 5 0;
#X connect 2 3 6 0;
#X connect 2 4 7 0;
#X connect 2 5 8 0;
#X connect 2 6 9 0;
#X connect 2 7 10 0;
#X connect 2 8 11 0;
#X connect 2 9 12 0;
#X connect 2 10 13 0;
#X connect 2 11 14 0;
#X connect 2 12 15 0;
#X connect 2 13 16 0;
#X connect 2 14 17 0;
#X connect 2 15 18 0;
#X connect 19 0 2 0;
#X connect 20 0 0 0;
#X connect 21 0 2 0;
#X restore 41 546 pd oboe8;
#X f 9;
#X msg 203 701 set slider 0 \$1 \, bang;
#X msg 362 697 set slider 1 \$1 \, bang;
#X obj 202 733 s r_consola;
#X obj 362 724 s r_consola;
#X obj 521 734 s r_consola;
#X msg 521 707 set slider 2 \$1 \, bang;
#X obj 662 737 s r_consola;
#X msg 662 710 set slider 3 \$1 \, bang;
#X obj 827 735 s r_consola;
#X msg 827 708 set slider 4 \$1 \, bang;
#X obj 1004 736 s r_consola;
#X msg 1004 709 set slider 5 \$1 \, bang;
#X obj 1185 735 s r_consola;
#X msg 1185 708 set slider 6 \$1 \, bang;
#X obj 1362 731 s r_consola;
#X msg 1362 704 set slider 7 \$1 \, bang;
#X obj 390 39 s r_consola;
#X obj 547 42 s r_consola;
#X obj 711 40 s r_consola;
#X obj 882 36 s r_consola;
#X obj 1051 37 s r_consola;
#X obj 1221 34 s r_consola;
#X obj 1390 34 s r_consola;
#X msg 1390 4 set slider 15 \$1 \, bang, f 24;
#X msg 1221 7 set slider 14 \$1 \, bang;
#X msg 1051 10 set slider 13 \$1 \, bang;
#X msg 882 9 set slider 12 \$1 \, bang;
#X msg 711 13 set slider 11 \$1 \, bang;
#X msg 547 15 set slider 10 \$1 \, bang;
#X msg 390 12 set slider 9 \$1 \, bang;
#X obj 217 34 s r_consola;
#X msg 217 7 set slider 8 \$1 \, bang;
#N canvas 472 729 631 323 viola8 0;
#X floatatom 10 40 5 0 0 0 - - -;
#X obj 10 70 sel 0 1;
#X obj 10 160 unpack f f f f f f f f f f f f f f f f;
#X obj 10 190 outlet;
#X obj 27 220 outlet;
#X obj 45 250 outlet;
#X obj 62 280 outlet;
#X obj 80 190 outlet;
#X obj 97 220 outlet;
#X obj 115 250 outlet;
#X obj 132 280 outlet;
#X obj 150 190 outlet;
#X obj 167 220 outlet;
#X obj 185 250 outlet;
#X obj 202 280 outlet;
#X obj 220 190 outlet;
#X obj 237 220 outlet;
#X obj 255 250 outlet;
#X obj 273 280 outlet;
#X msg 10 130 -100 -100 -100 -100 -100 -100 -100 -100 -100 -100 -100
-100 -100 -100 -100 -100, f 79;
#X obj 10 10 r s_viola8;
#X msg 33 100 -100 -100 -8.5 -100 -29.7 -38.4 -100 -100 -100 -100 -100
-100 -100 -100 -100 -100, f 81;
#X connect 0 0 1 0;
#X connect 1 0 19 0;
#X connect 1 1 21 0;
#X connect 2 0 3 0;
#X connect 2 1 4 0;
#X connect 2 2 5 0;
#X connect 2 3 6 0;
#X connect 2 4 7 0;
#X connect 2 5 8 0;
#X connect 2 6 9 0;
#X connect 2 7 10 0;
#X connect 2 8 11 0;
#X connect 2 9 12 0;
#X connect 2 10 13 0;
#X connect 2 11 14 0;
#X connect 2 12 15 0;
#X connect 2 13 16 0;
#X connect 2 14 17 0;
#X connect 2 15 18 0;
#X connect 19 0 2 0;
#X connect 20 0 0 0;
#X connect 21 0 2 0;
#X restore 39 592 pd viola8;
#X f 11;
#X connect 0 0 24 0;
#X connect 1 0 24 1;
#X connect 2 0 24 2;
#X connect 3 0 24 3;
#X connect 4 0 24 4;
#X connect 5 0 24 5;
#X connect 6 0 24 6;
#X connect 7 0 24 7;
#X connect 8 0 24 8;
#X connect 9 0 24 9;
#X connect 10 0 24 10;
#X connect 11 0 24 11;
#X connect 12 0 24 12;
#X connect 13 0 24 13;
#X connect 14 0 24 14;
#X connect 15 0 24 15;
#X connect 16 0 0 4;
#X connect 16 1 1 4;
#X connect 16 2 2 4;
#X connect 16 3 3 4;
#X connect 16 4 4 4;
#X connect 16 5 5 4;
#X connect 16 6 6 4;
#X connect 16 7 7 4;
#X connect 16 8 8 4;
#X connect 16 9 9 4;
#X connect 16 10 10 4;
#X connect 16 11 11 4;
#X connect 16 12 12 4;
#X connect 16 13 13 4;
#X connect 16 14 14 4;
#X connect 16 15 15 4;
#X connect 17 0 0 3;
#X connect 17 1 1 3;
#X connect 17 2 2 3;
#X connect 17 3 3 3;
#X connect 17 4 4 3;
#X connect 17 5 5 3;
#X connect 17 6 6 3;
#X connect 17 7 7 3;
#X connect 17 8 8 3;
#X connect 17 9 9 3;
#X connect 17 10 10 3;
#X connect 17 11 11 3;
#X connect 17 12 12 3;
#X connect 17 13 13 3;
#X connect 17 14 14 3;
#X connect 17 15 15 3;
#X connect 18 0 0 2;
#X connect 18 1 1 2;
#X connect 18 2 2 2;
#X connect 18 3 3 2;
#X connect 18 4 4 2;
#X connect 18 5 5 2;
#X connect 18 6 6 2;
#X connect 18 7 7 2;
#X connect 18 8 8 2;
#X connect 18 9 9 2;
#X connect 18 10 10 2;
#X connect 18 11 11 2;
#X connect 18 12 12 2;
#X connect 18 13 13 2;
#X connect 18 14 14 2;
#X connect 18 15 15 2;
#X connect 19 0 0 1;
#X connect 19 1 1 1;
#X connect 19 2 2 1;
#X connect 19 3 3 1;
#X connect 19 4 4 1;
#X connect 19 5 5 1;
#X connect 19 6 6 1;
#X connect 19 7 7 1;
#X connect 19 8 8 1;
#X connect 19 9 9 1;
#X connect 19 10 10 1;
#X connect 19 11 11 1;
#X connect 19 12 12 1;
#X connect 19 13 13 1;
#X connect 19 14 14 1;
#X connect 19 15 15 1;
#X connect 20 0 0 0;
#X connect 20 1 1 0;
#X connect 20 2 2 0;
#X connect 20 3 3 0;
#X connect 20 4 4 0;
#X connect 20 5 5 0;
#X connect 20 6 6 0;
#X connect 20 7 7 0;
#X connect 20 8 8 0;
#X connect 20 9 9 0;
#X connect 20 10 10 0;
#X connect 20 11 11 0;
#X connect 20 12 12 0;
#X connect 20 13 13 0;
#X connect 20 14 14 0;
#X connect 20 15 15 0;
#X connect 21 0 0 5;
#X connect 21 1 1 5;
#X connect 21 2 2 5;
#X connect 21 3 3 5;
#X connect 21 4 4 5;
#X connect 21 5 5 5;
#X connect 21 6 6 5;
#X connect 21 7 7 5;
#X connect 21 8 8 5;
#X connect 21 9 9 5;
#X connect 21 10 10 5;
#X connect 21 11 11 5;
#X connect 21 12 12 5;
#X connect 21 13 13 5;
#X connect 21 14 14 5;
#X connect 21 15 15 5;
#X connect 22 0 0 6;
#X connect 22 1 1 6;
#X connect 22 2 2 6;
#X connect 22 3 3 6;
#X connect 22 4 4 6;
#X connect 22 5 5 6;
#X connect 22 6 6 6;
#X connect 22 7 7 6;
#X connect 22 8 8 6;
#X connect 22 9 9 6;
#X connect 22 10 10 6;
#X connect 22 11 11 6;
#X connect 22 12 12 6;
#X connect 22 13 13 6;
#X connect 22 14 14 6;
#X connect 22 15 15 6;
#X connect 23 0 0 7;
#X connect 23 1 1 7;
#X connect 23 2 2 7;
#X connect 23 3 3 7;
#X connect 23 4 4 7;
#X connect 23 5 5 7;
#X connect 23 6 6 7;
#X connect 23 7 7 7;
#X connect 23 8 8 7;
#X connect 23 9 9 7;
#X connect 23 10 10 7;
#X connect 23 11 11 7;
#X connect 23 12 12 7;
#X connect 23 13 13 7;
#X connect 23 14 14 7;
#X connect 23 15 15 7;
#X connect 24 0 25 0;
#X connect 26 0 0 8;
#X connect 26 1 1 8;
#X connect 26 2 2 8;
#X connect 26 3 3 8;
#X connect 26 4 4 8;
#X connect 26 5 5 8;
#X connect 26 6 6 8;
#X connect 26 7 7 8;
#X connect 26 8 8 8;
#X connect 26 9 9 8;
#X connect 26 10 10 8;
#X connect 26 11 11 8;
#X connect 26 12 12 8;
#X connect 26 13 13 8;
#X connect 26 14 14 8;
#X connect 26 15 15 8;
#X connect 27 0 29 0;
#X connect 28 0 30 0;
#X connect 32 0 31 0;
#X connect 34 0 33 0;
#X connect 36 0 35 0;
#X connect 38 0 37 0;
#X connect 40 0 39 0;
#X connect 42 0 41 0;
#X connect 50 0 49 0;
#X connect 51 0 48 0;
#X connect 52 0 47 0;
#X connect 53 0 46 0;
#X connect 54 0 45 0;
#X connect 55 0 44 0;
#X connect 56 0 43 0;
#X connect 58 0 57 0;
#X connect 59 0 0 9;
#X connect 59 1 1 9;
#X connect 59 2 2 9;
#X connect 59 3 3 9;
#X connect 59 4 4 9;
#X connect 59 5 5 9;
#X connect 59 6 6 9;
#X connect 59 7 7 9;
#X connect 59 8 8 9;
#X connect 59 9 9 9;
#X connect 59 10 10 9;
#X connect 59 11 11 9;
#X connect 59 12 12 9;
#X connect 59 13 13 9;
#X connect 59 14 14 9;
#X connect 59 15 15 9;
