#N canvas 434 228 689 359 10;
#X obj 280 250 freeverb~;
#X msg 350 138 roomsize \$1;
#X msg 436 138 damping \$1;
#X msg 521 137 wet \$1;
#X msg 584 137 dry \$1;
#X obj 280 10 inlet~;
#X obj 279 310 outlet~;
#X obj 332 309 outlet~;
#X obj 60 50 vsl 30 100 0 127 0 1 s_room s_room_user roomsize 0 -9
0 10 #fcfcfc #000000 #000000 7016 1;
#X floatatom 350 105 5 0 0 0 - - -, f 5;
#X obj 119 52 vsl 30 100 0 128 0 1 s_damping s_damping_user damping
0 -9 0 10 #fcfcfc #000000 #000000 1547 1;
#X floatatom 436 103 5 0 0 0 - - -, f 5;
#X obj 180 50 vsl 30 100 0 128 0 1 s_wet s_wet_user wet 0 -9 0 10 #fcfcfc
#000000 #000000 6961 1;
#X floatatom 521 103 5 0 0 0 - - -, f 5;
#X obj 240 50 vsl 30 100 0 128 0 1 s_dry s_dry_user dry 0 -9 0 10 #fcfcfc
#000000 #000000 8508 1;
#X floatatom 584 102 5 0 0 0 - - -, f 5;
#X msg 167 269 bypass \$1;
#X obj 350 68 / 127;
#X obj 436 66 / 63.4;
#X obj 521 66 / 127;
#X obj 584 65 / 127;
#X obj 167 236 tgl 15 1 empty empty empty 17 7 0 10 #fcfcfc #000000
#000000 1 1;
#X obj 167 200 loadbang;
#X obj 436 30 r s_damping;
#X obj 521 30 r s_wet;
#X obj 584 30 r s_dry;
#X obj 350 30 r s_room;
#X obj 280 280 /~ 2;
#X obj 331 280 /~ 2;
#X obj 60 210 r s_reverb_on;
#X floatatom 58 169 5 0 127 0 - s_room -, f 5;
#X floatatom 120 170 5 0 127 0 - s_damping -, f 5;
#X floatatom 180 170 5 0 127 0 - s_wet -, f 5;
#X floatatom 238 169 5 0 127 0 - s_dry -, f 5;
#X connect 0 0 27 0;
#X connect 0 1 28 0;
#X connect 1 0 0 0;
#X connect 2 0 0 0;
#X connect 3 0 0 0;
#X connect 4 0 0 0;
#X connect 5 0 0 0;
#X connect 5 0 0 1;
#X connect 9 0 1 0;
#X connect 11 0 2 0;
#X connect 13 0 3 0;
#X connect 15 0 4 0;
#X connect 16 0 0 0;
#X connect 17 0 9 0;
#X connect 18 0 11 0;
#X connect 19 0 13 0;
#X connect 20 0 15 0;
#X connect 21 0 16 0;
#X connect 22 0 21 0;
#X connect 23 0 18 0;
#X connect 24 0 19 0;
#X connect 25 0 20 0;
#X connect 26 0 17 0;
#X connect 27 0 6 0;
#X connect 28 0 7 0;
#X connect 29 0 21 0;
#X coords 0 0 1 1 300 200 0;
