#N canvas 690 0 670 768 12;
#X obj 18 15 inlet;
#X obj 18 139 outlet;
#X obj 18 61 list prepend set;
#X obj 18 87 list trim;
#X obj 149 10 inlet;
#X msg 149 60 set;
#X connect 0 0 2 0;
#X connect 2 0 3 0;
#X connect 3 0 1 0;
#X connect 4 0 5 0;
#X connect 5 0 1 0;
