#N canvas 47 61 760 715 12;
#X text 360 280 Equal Tempered;
#X text 494 220 Aaron 1/4 comma;
#X text 556 310 Kirnberger III;
#X obj 30 10 r s_temp-sel;
#X text 418 190 Pythagorean tuning;
#X text 341 160 Just tuning;
#X text 551 250 Salinas 1/3 comma;
#X text 557 340 Wercmeister III;
#X text 500 370 Vallotti;
#X obj 130 10 r s_root;
#X obj 130 69 t f b;
#X obj 50 540 unpack f f f f f f f f f f f f;
#X obj 30 738 s r_c;
#X obj 48 772 s r_cs;
#X obj 67 802 s r_d;
#X obj 86 742 s r_ds;
#X obj 105 772 s r_e;
#X obj 124 802 s r_f;
#X obj 142 742 s r_fs;
#X obj 161 772 s r_g;
#X obj 180 802 s r_gs;
#X obj 199 742 s r_a;
#X obj 218 772 s r_as;
#X obj 237 802 s r_b;
#X obj 30 590 pack f f f f f f f f f f f f f, f 33;
#X obj 30 620 route 0 1 2 3 4 5 6 7 8 9 10 11;
#X obj 30 700 unpack f f f f f f f f f f f f;
#N canvas 630 1103 525 504 roots 0;
#X obj 30 10 inlet;
#X obj 30 450 outlet;
#X msg 33 62 \$1 \$2 \$3 \$4 \$5 \$6 \$7 \$8 \$9 \$10 \$11 \$12;
#X msg 53 92 \$12 \$1 \$2 \$3 \$4 \$5 \$6 \$7 \$8 \$9 \$10 \$11;
#X obj 70 30 inlet;
#X msg 70 120 \$11 \$12 \$1 \$2 \$3 \$4 \$5 \$6 \$7 \$8 \$9 \$10;
#X obj 110 10 inlet;
#X msg 80 150 \$10 \$11 \$12 \$1 \$2 \$3 \$4 \$5 \$6 \$7 \$8 \$9;
#X obj 150 30 inlet;
#X msg 90 180 \$9 \$10 \$11 \$12 \$1 \$2 \$3 \$4 \$5 \$6 \$7 \$8;
#X obj 190 10 inlet;
#X obj 230 30 inlet;
#X msg 100 210 \$8 \$9 \$10 \$11 \$12 \$1 \$2 \$3 \$4 \$5 \$6 \$7;
#X obj 270 10 inlet;
#X msg 110 240 \$7 \$8 \$9 \$10 \$11 \$12 \$1 \$2 \$3 \$4 \$5 \$6;
#X obj 310 30 inlet;
#X msg 120 270 \$6 \$7 \$8 \$9 \$10 \$11 \$12 \$1 \$2 \$3 \$4 \$5;
#X obj 350 10 inlet;
#X msg 130 300 \$5 \$6 \$7 \$8 \$9 \$10 \$11 \$12 \$1 \$2 \$3 \$4;
#X obj 390 30 inlet;
#X msg 140 330 \$4 \$5 \$6 \$7 \$8 \$9 \$10 \$11 \$12 \$1 \$2 \$3;
#X msg 150 360 \$3 \$4 \$5 \$6 \$7 \$8 \$9 \$10 \$11 \$12 \$1 \$2;
#X obj 430 10 inlet;
#X obj 470 30 inlet;
#X msg 160 390 \$2 \$3 \$4 \$5 \$6 \$7 \$8 \$9 \$10 \$11 \$12 \$1;
#X connect 0 0 2 0;
#X connect 2 0 1 0;
#X connect 3 0 1 0;
#X connect 4 0 3 0;
#X connect 5 0 1 0;
#X connect 6 0 5 0;
#X connect 7 0 1 0;
#X connect 8 0 7 0;
#X connect 9 0 1 0;
#X connect 10 0 9 0;
#X connect 11 0 12 0;
#X connect 12 0 1 0;
#X connect 13 0 14 0;
#X connect 14 0 1 0;
#X connect 15 0 16 0;
#X connect 16 0 1 0;
#X connect 17 0 18 0;
#X connect 18 0 1 0;
#X connect 19 0 20 0;
#X connect 20 0 1 0;
#X connect 21 0 1 0;
#X connect 22 0 21 0;
#X connect 23 0 24 0;
#X connect 24 0 1 0;
#X restore 30 660 pd roots;
#X floatatom 130 40 5 0 0 0 - - -;
#X msg 30 490 0 0 0 0 0 0 0 0 0 0 0 0, f 63;
#X msg 30 160 set 0 0 3.9 0 -13.7 -2 0 2 0 -15.6 0 -11.7;
#X msg 46 190 set 0 13.7 3.9 -5.9 7.8 -2 11.7 2 15.6 5.9 -3.9 9.8;
#X msg 62 220 set 0 -24 -7 10.3 -13.7 3.4 -20.5 -3.6 -27.4 -10.3 6.8
-17.1;
#X msg 78 250 set 0 -36.5 -10.4 15.6 -20.9 5.2 -31.3 -5.2 -41.7 -15.6
10.4 -26.1, f 66;
#X msg 94 280 set 0 0 0 0 0 0 0 0 0 0 0 0;
#X msg 110 310 set 0 -7.8 -6.8 -5.9 -13.7 -2 -9.8 -3.4 -5.9 -10.3 -3.9
-11.71, f 62;
#X msg 127 340 set 0 -9.8 -7.8 -5.9 -9.8 -2 -11.7 -3.9 -7.9 -11.7 -3.9
-7.8;
#X msg 143 370 set 0 -5.9 -3.9 -2 -7.8 2 -7.8 -2 -3.9 -5.9 0 -9.8;
#X text 590 430 Spectral scale;
#X obj 30 50 t b f;
#X msg 160 400 set 0 -8 -5.5 -5.9 -10.9 -2 -11.7 -2.7 -7.8 -8.2 -3.9
-9;
#X text 572 399 Kellner;
#X msg 180 430 set 0 4.9 3.9 -2.5 -13.7 -29.4 -48.7 2 -27.4 9 -31.2
-11.7;
#X obj 30 130 sel 0 1 2 3 4 5 6 7 8 9 10;
#X text 595 458 Resonancia inferior;
#X msg 192 459 set 0 11.7 31.2 -9 27.4 -2 48.7 29.4 13.7 2.5 -3.9 -4.9
;
#X connect 3 0 39 0;
#X connect 9 0 28 0;
#X connect 10 0 24 0;
#X connect 10 1 29 0;
#X connect 11 0 24 1;
#X connect 11 1 24 2;
#X connect 11 2 24 3;
#X connect 11 3 24 4;
#X connect 11 4 24 5;
#X connect 11 5 24 6;
#X connect 11 6 24 7;
#X connect 11 7 24 8;
#X connect 11 8 24 9;
#X connect 11 9 24 10;
#X connect 11 10 24 11;
#X connect 11 11 24 12;
#X connect 24 0 25 0;
#X connect 25 0 27 0;
#X connect 25 1 27 1;
#X connect 25 2 27 2;
#X connect 25 3 27 3;
#X connect 25 4 27 4;
#X connect 25 5 27 5;
#X connect 25 6 27 6;
#X connect 25 7 27 7;
#X connect 25 8 27 8;
#X connect 25 9 27 9;
#X connect 25 10 27 10;
#X connect 25 11 27 11;
#X connect 26 0 12 0;
#X connect 26 1 13 0;
#X connect 26 2 14 0;
#X connect 26 3 15 0;
#X connect 26 4 16 0;
#X connect 26 5 17 0;
#X connect 26 6 18 0;
#X connect 26 7 19 0;
#X connect 26 8 20 0;
#X connect 26 9 21 0;
#X connect 26 10 22 0;
#X connect 26 11 23 0;
#X connect 27 0 26 0;
#X connect 28 0 10 0;
#X connect 29 0 11 0;
#X connect 30 0 29 0;
#X connect 31 0 29 0;
#X connect 32 0 29 0;
#X connect 33 0 29 0;
#X connect 34 0 29 0;
#X connect 35 0 29 0;
#X connect 36 0 29 0;
#X connect 37 0 29 0;
#X connect 39 0 28 0;
#X connect 39 1 43 0;
#X connect 40 0 29 0;
#X connect 42 0 29 0;
#X connect 43 0 30 0;
#X connect 43 1 31 0;
#X connect 43 2 32 0;
#X connect 43 3 33 0;
#X connect 43 4 34 0;
#X connect 43 5 35 0;
#X connect 43 6 36 0;
#X connect 43 7 37 0;
#X connect 43 8 40 0;
#X connect 43 9 42 0;
#X connect 43 10 45 0;
#X connect 45 0 29 0;
