#N canvas 241 157 197 341 10;
#X obj 21 143 inlet~;
#X obj 111 80 osc~;
#X obj 111 119 *~ 0.5;
#X obj 60 277 outlet~;
#X obj 111 160 +~ 1;
#X obj 76 196 *~;
#X obj 61 236 +~;
#X obj 111 41 * 5;
#X obj 111 7 r s_lfo;
#X connect 0 0 5 0;
#X connect 0 0 6 0;
#X connect 1 0 2 0;
#X connect 2 0 4 0;
#X connect 4 0 5 1;
#X connect 5 0 6 1;
#X connect 6 0 3 0;
#X connect 7 0 1 0;
#X connect 8 0 7 0;
#X coords 0 0 1 1 150 60 0;
