#N canvas 274 840 1360 715 10;
#X obj 190 20 inlet;
#X obj 20 220 / 2;
#X obj 321 220 * 3;
#X obj 388 220 * 4;
#X obj 456 220 * 5;
#X obj 525 220 * 6;
#X obj 660 220 * 8;
#X obj 20 263 osc~;
#X obj 200 263 osc~;
#X obj 321 263 osc~;
#X obj 388 263 osc~;
#X obj 456 264 osc~;
#X obj 525 263 osc~;
#X obj 660 262 osc~;
#X obj 140 264 osc~;
#X obj 19 359 *~;
#X obj 200 358 *~;
#X obj 322 356 *~;
#X obj 389 355 *~;
#X obj 457 354 *~;
#X obj 526 354 *~;
#X obj 661 354 *~;
#X obj 194 423 +~;
#X obj 196 546 outlet~;
#X obj 257 263 osc~;
#X obj 256 358 *~;
#X obj 139 363 *~;
#X floatatom 154 334 5 0 0 0 - - -;
#X floatatom 215 333 5 0 0 0 - - -;
#X floatatom 34 331 5 0 0 0 - - -;
#X floatatom 271 330 5 0 0 0 - - -;
#X floatatom 337 330 5 0 0 0 - - -;
#X floatatom 404 330 5 0 0 0 - - -;
#X floatatom 472 329 5 0 0 0 - - -;
#X floatatom 541 329 5 0 0 0 - - -;
#X floatatom 676 326 5 0 0 0 - - -;
#X floatatom 140 220 5 0 0 0 - - -;
#X obj 257 220 * 2;
#X obj 241 20 inlet;
#X obj 190 60 stripnote;
#X obj 196 505 *~;
#X obj 190 130 mdtof;
#X obj 217 100 r s_diapason;
#X obj 200 220 * 1.5;
#X obj 70 263 osc~;
#X obj 69 359 *~;
#X floatatom 84 331 5 0 0 0 - - -;
#X obj 70 220 / 1.33;
#X obj 600 262 osc~;
#X obj 601 354 *~;
#X floatatom 616 326 5 0 0 0 - - -;
#X obj 600 220 * 7;
#X obj 730 262 osc~;
#X obj 731 354 *~;
#X floatatom 746 326 5 0 0 0 - - -;
#X obj 730 220 * 9;
#X obj 800 262 osc~;
#X obj 801 354 *~;
#X floatatom 816 326 5 0 0 0 - - -;
#X obj 870 262 osc~;
#X obj 871 354 *~;
#X floatatom 886 326 5 0 0 0 - - -;
#X obj 800 220 * 11;
#X obj 870 220 * 13;
#X obj 940 262 osc~;
#X obj 941 354 *~;
#X floatatom 956 326 5 0 0 0 - - -;
#X obj 940 220 * 1.0011;
#X floatatom 985 100 5 0 0 0 - - -;
#X floatatom 985 194 5 0 0 0 - - -;
#X obj 985 70 r s_desvio;
#X obj 1045 261 osc~;
#X obj 1046 354 *~;
#X floatatom 1061 326 5 0 0 0 - - -;
#X obj 1045 220 * 1.0011;
#X floatatom 1110 100 5 0 0 0 - - -;
#X floatatom 1110 194 5 0 0 0 - - -;
#X obj 1110 70 r s_desvio;
#X obj 195 467 /~ 16;
#X floatatom 1080 240 5 0 0 0 - - -;
#X obj 1110 160 * 2;
#X obj 1180 300 adsr;
#N canvas 735 25 150 240 cents 0;
#X obj 30 80 t b f;
#X msg 30 110 2;
#X obj 30 140 pow;
#X obj 70 110 / 1200;
#X obj 30 20 inlet;
#X floatatom 30 50 5 0 0 0 - - -;
#X floatatom 30 170 5 0 0 0 - - -;
#X obj 30 200 outlet;
#X connect 0 0 1 0;
#X connect 0 1 3 0;
#X connect 1 0 2 0;
#X connect 2 0 6 0;
#X connect 3 0 2 1;
#X connect 4 0 5 0;
#X connect 5 0 0 0;
#X connect 6 0 7 0;
#X restore 985 130 pd cents a cociente;
#N canvas 735 25 150 240 cents 0;
#X obj 30 80 t b f;
#X msg 30 110 2;
#X obj 30 140 pow;
#X obj 70 110 / 1200;
#X obj 30 20 inlet;
#X floatatom 30 50 5 0 0 0 - - -;
#X floatatom 30 170 5 0 0 0 - - -;
#X obj 30 200 outlet;
#X connect 0 0 1 0;
#X connect 0 1 3 0;
#X connect 1 0 2 0;
#X connect 2 0 6 0;
#X connect 3 0 2 1;
#X connect 4 0 5 0;
#X connect 5 0 0 0;
#X connect 6 0 7 0;
#X restore 1110 130 pd cents a cociente;
#X obj 31 308 dbamp;
#X obj 90 309 dbamp;
#X obj 157 308 dbamp;
#X obj 214 311 dbamp;
#X obj 271 309 dbamp;
#X obj 337 310 dbamp;
#X obj 404 309 dbamp;
#X obj 470 308 dbamp;
#X obj 543 307 dbamp;
#X obj 612 305 dbamp;
#X obj 672 306 dbamp;
#X obj 739 305 dbamp;
#X obj 812 304 dbamp;
#X obj 889 306 dbamp;
#X obj 955 304 dbamp;
#X obj 1061 303 dbamp;
#X obj 773 403 r s_consola;
#X obj 773 425 unpack f f f f f f f f f f f f f f f f;
#X obj 771 468 s c1;
#X obj 784 494 s c2;
#X obj 801 520 s c3;
#X obj 814 546 s c4;
#X obj 833 470 s c5;
#X obj 846 496 s c6;
#X obj 863 522 s c7;
#X obj 876 548 s c8;
#X obj 892 469 s c9;
#X obj 905 495 s c10;
#X obj 922 521 s c11;
#X obj 935 547 s c12;
#X obj 954 469 s c13;
#X obj 967 495 s c14;
#X obj 984 521 s c15;
#X obj 997 547 s c16;
#X obj 294 465 r c1;
#X obj 307 491 r c2;
#X obj 324 517 r c3;
#X obj 337 543 r c4;
#X obj 356 466 r c5;
#X obj 369 493 r c6;
#X obj 386 519 r c7;
#X obj 399 545 r c8;
#X obj 415 466 r c9;
#X obj 428 492 r c10;
#X obj 445 518 r c11;
#X obj 458 544 r c12;
#X obj 477 466 r c13;
#X obj 490 492 r c14;
#X obj 507 518 r c15;
#X obj 520 544 r c16;
#X connect 0 0 39 0;
#X connect 0 0 81 0;
#X connect 1 0 7 0;
#X connect 2 0 9 0;
#X connect 3 0 10 0;
#X connect 4 0 11 0;
#X connect 5 0 12 0;
#X connect 6 0 13 0;
#X connect 7 0 15 0;
#X connect 8 0 16 0;
#X connect 9 0 17 0;
#X connect 10 0 18 0;
#X connect 11 0 19 0;
#X connect 12 0 20 0;
#X connect 13 0 21 0;
#X connect 14 0 26 0;
#X connect 15 0 22 0;
#X connect 16 0 22 0;
#X connect 17 0 22 0;
#X connect 18 0 22 0;
#X connect 19 0 22 0;
#X connect 20 0 22 0;
#X connect 21 0 22 0;
#X connect 22 0 78 0;
#X connect 24 0 25 0;
#X connect 25 0 22 0;
#X connect 26 0 22 0;
#X connect 27 0 26 1;
#X connect 28 0 16 1;
#X connect 29 0 15 1;
#X connect 30 0 25 1;
#X connect 31 0 17 1;
#X connect 32 0 18 1;
#X connect 33 0 19 1;
#X connect 34 0 20 1;
#X connect 35 0 21 1;
#X connect 36 0 14 0;
#X connect 37 0 24 0;
#X connect 38 0 39 1;
#X connect 38 0 81 1;
#X connect 39 0 41 0;
#X connect 40 0 23 0;
#X connect 41 0 1 0;
#X connect 41 0 2 0;
#X connect 41 0 3 0;
#X connect 41 0 4 0;
#X connect 41 0 5 0;
#X connect 41 0 6 0;
#X connect 41 0 36 0;
#X connect 41 0 37 0;
#X connect 41 0 43 0;
#X connect 41 0 47 0;
#X connect 41 0 51 0;
#X connect 41 0 55 0;
#X connect 41 0 62 0;
#X connect 41 0 63 0;
#X connect 41 0 67 0;
#X connect 41 0 74 0;
#X connect 42 0 41 1;
#X connect 43 0 8 0;
#X connect 44 0 45 0;
#X connect 45 0 22 0;
#X connect 46 0 45 1;
#X connect 47 0 44 0;
#X connect 48 0 49 0;
#X connect 49 0 22 0;
#X connect 50 0 49 1;
#X connect 51 0 48 0;
#X connect 52 0 53 0;
#X connect 53 0 22 0;
#X connect 54 0 53 1;
#X connect 55 0 52 0;
#X connect 56 0 57 0;
#X connect 57 0 22 0;
#X connect 58 0 57 1;
#X connect 59 0 60 0;
#X connect 60 0 22 0;
#X connect 61 0 60 1;
#X connect 62 0 56 0;
#X connect 63 0 59 0;
#X connect 64 0 65 0;
#X connect 65 0 22 0;
#X connect 66 0 65 1;
#X connect 67 0 64 0;
#X connect 68 0 82 0;
#X connect 69 0 67 1;
#X connect 70 0 68 0;
#X connect 71 0 72 0;
#X connect 72 0 22 0;
#X connect 73 0 72 1;
#X connect 74 0 71 0;
#X connect 74 0 79 0;
#X connect 75 0 83 0;
#X connect 76 0 74 1;
#X connect 77 0 75 0;
#X connect 78 0 40 0;
#X connect 80 0 76 0;
#X connect 81 0 40 1;
#X connect 82 0 69 0;
#X connect 83 0 80 0;
#X connect 84 0 29 0;
#X connect 85 0 46 0;
#X connect 86 0 27 0;
#X connect 87 0 28 0;
#X connect 88 0 30 0;
#X connect 89 0 31 0;
#X connect 90 0 32 0;
#X connect 91 0 33 0;
#X connect 92 0 34 0;
#X connect 93 0 50 0;
#X connect 94 0 35 0;
#X connect 95 0 54 0;
#X connect 96 0 58 0;
#X connect 97 0 61 0;
#X connect 98 0 66 0;
#X connect 99 0 73 0;
#X connect 100 0 101 0;
#X connect 101 0 102 0;
#X connect 101 1 103 0;
#X connect 101 2 104 0;
#X connect 101 3 105 0;
#X connect 101 4 106 0;
#X connect 101 5 107 0;
#X connect 101 6 108 0;
#X connect 101 7 109 0;
#X connect 101 8 110 0;
#X connect 101 9 111 0;
#X connect 101 10 112 0;
#X connect 101 11 113 0;
#X connect 101 12 114 0;
#X connect 101 13 115 0;
#X connect 101 14 116 0;
#X connect 101 15 117 0;
#X connect 118 0 84 0;
#X connect 119 0 85 0;
#X connect 120 0 86 0;
#X connect 121 0 87 0;
#X connect 122 0 88 0;
#X connect 123 0 89 0;
#X connect 124 0 90 0;
#X connect 125 0 91 0;
#X connect 126 0 92 0;
#X connect 127 0 93 0;
#X connect 128 0 94 0;
#X connect 129 0 95 0;
#X connect 130 0 96 0;
#X connect 131 0 97 0;
#X connect 132 0 98 0;
#X connect 133 0 99 0;
